<?xml version="1.0" encoding="utf-8"?>
<!-- Generator: Adobe Illustrator 26.3.1, SVG Export Plug-In . SVG Version: 6.00 Build 0)  -->
<svg version="1.1" id="Layer_1" xmlns="http://www.w3.org/2000/svg" xmlns:xlink="http://www.w3.org/1999/xlink" x="0px" y="0px"
	 viewBox="0 0 3000 3000" enable-background="new 0 0 3000 3000" xml:space="preserve">
<g>
	<path fill="none" d="M1698.7,1533.9c-0.3,1.5-0.6,2.9-0.8,4.4C1698.1,1536.8,1698.4,1535.3,1698.7,1533.9z"/>
	<path fill="none" d="M1731,1941.1C1731,1941.1,1731,1941.1,1731,1941.1C1731,1941.1,1731,1941.1,1731,1941.1z"/>
	<path fill="none" d="M1693.9,1559.7c0,0.1,0,0.3,0,0.4C1693.9,1560,1693.9,1559.8,1693.9,1559.7z"/>
	<path fill="none" d="M1697,1542.7c-0.2,0.9-0.4,1.8-0.7,2.8C1696.6,1544.5,1696.8,1543.6,1697,1542.7z"/>
	<path fill="none" d="M2152.3,1369.9c-2-1.7-4.1-3.3-5.1-5.8c-39.4-28.8-82.2-41.2-127.8-41.5c45.5,0.3,88.4,12.7,127.8,41.5
		C2148.2,1366.7,2150.2,1368.3,2152.3,1369.9z"/>
	<path fill="none" d="M1730.3,1905c0.2-2.4,0.4-4.9,0.7-7.3C1730.6,1900.1,1730.4,1902.5,1730.3,1905z"/>
	<path fill="none" d="M1729.9,1915.4c0-1.3,0-2.6,0-3.9C1729.9,1912.8,1729.9,1914.1,1729.9,1915.4z"/>
	<path fill="none" d="M1763.5,1912.6c12.6-11.6,23.6-24.9,33.2-39.6c19.7-3.6,39.1-8.1,58.2-13.7c-19.1,5.6-38.5,10.2-58.2,13.7
		C1787,1887.7,1776,1901,1763.5,1912.6z"/>
	<path fill="none" d="M988.8,1213.4C988.8,1213.4,988.8,1213.4,988.8,1213.4c1-12.6,2.3-25.1,4.6-37.5
		C991.1,1188.3,989.7,1200.8,988.8,1213.4z"/>
	<path fill="none" d="M1692.7,1568.2c0,0.2-0.1,0.4-0.1,0.6C1692.7,1568.6,1692.7,1568.4,1692.7,1568.2z"/>
	<path fill="none" d="M1184.7,1648.8c-1.9-0.9-3.8-1.9-5.7-2.7C1180.9,1646.9,1182.8,1647.9,1184.7,1648.8z"/>
	<path fill="none" d="M471,569.5c0.2,0,0.4,0,0.6,0C471.4,569.5,471.2,569.5,471,569.5z"/>
	<path fill="none" d="M677.4,306.5c-2.1,0.1-4.1,0.1-6.2,0.2C673.2,306.6,675.3,306.5,677.4,306.5z"/>
	<path fill="none" d="M689.3,306.2C689.3,306.2,689.2,306.2,689.3,306.2C689.2,306.2,689.3,306.2,689.3,306.2z"/>
	<path fill="none" d="M749.9,1029.9c7.2,7.7,14.2,15.6,21,23.7C764.1,1045.5,757.1,1037.6,749.9,1029.9z"/>
	<path fill="none" d="M1193.4,1653.5c-1.4-0.8-2.9-1.6-4.4-2.4C1190.5,1651.8,1192,1652.6,1193.4,1653.5z"/>
	<path fill="none" d="M1229.1,1669c-2.4-0.9-4.8-1.8-7.2-2.6C1224.3,1667.2,1226.7,1668,1229.1,1669z"/>
	<path fill="none" d="M774,2119.1c-0.3,0.2-0.5,0.6-0.6,1C773.5,2119.7,773.7,2119.4,774,2119.1z"/>
	<path fill="none" d="M773.4,2120.6c0-0.1,0-0.3,0-0.4C773.4,2120.3,773.4,2120.4,773.4,2120.6
		C773.4,2120.6,773.4,2120.6,773.4,2120.6z"/>
	<path fill="none" d="M1567.1,2321.9C1567.1,2321.9,1567.1,2321.9,1567.1,2321.9c-2.5,18.6-8.6,35.7-18.6,51.1
		C1558.6,2357.6,1564.6,2340.6,1567.1,2321.9z"/>
	<path fill="none" d="M823,355c0,0.5,0,1-0.1,1.5C823,356,823,355.5,823,355z"/>
	<path fill="none" d="M459,2666.9c-2.7,1.4-5.6,2.4-8.7,3.2C453.4,2669.3,456.3,2668.2,459,2666.9z"/>
	<path fill="none" d="M1548.5,2373.1c-1.5,2.4-3.2,4.7-4.9,7C1545.3,2377.8,1546.9,2375.4,1548.5,2373.1z"/>
	<path fill="none" d="M92.3,1702.7c1.2-1.3,2.5-2.7,3.8-4C94.8,1700,93.6,1701.3,92.3,1702.7z"/>
	<path fill="none" d="M1734.1,1964.4c-1.1-5.9-1.9-12-2.4-18l0,0C1732.2,1952.4,1733,1958.4,1734.1,1964.4z"/>
	<path fill="none" d="M768.1,2121.3c-0.4,0.2-0.8,0.5-1.1,0.7C767.4,2121.8,767.7,2121.6,768.1,2121.3z"/>
	<path fill="none" d="M2338.1,2670.5C2338.1,2670.5,2338.1,2670.5,2338.1,2670.5c-0.2-0.4-0.3-0.8-0.4-1.2
		C2337.8,2669.8,2338,2670.2,2338.1,2670.5z"/>
	<path fill="none" d="M1537.5,2584.3c-0.5,0.3-0.7,1.1-0.9,1.7c-4.2,4-7.7,8.6-10.9,13.4c3.1-4.8,6.6-9.4,10.9-13.4
		C1536.8,2585.4,1537,2584.6,1537.5,2584.3z"/>
	<path fill="none" d="M1525.8,2599.4c-1.3,1.9-2.5,3.9-3.6,5.9C1523.3,2603.3,1524.5,2601.3,1525.8,2599.4z"/>
	<path fill="none" d="M1518.8,2610.3C1518.8,2610.3,1518.8,2610.3,1518.8,2610.3c0.1-0.5,0.2-0.9,0.4-1.2
		C1519,2609.4,1518.8,2609.8,1518.8,2610.3z"/>
	<path fill="none" d="M27.4,1815.2L27.4,1815.2c0.9-3.6,1.8-7.1,2.9-10.5C29.3,1808.1,28.3,1811.6,27.4,1815.2z"/>
	<path fill="none" d="M2835.2,1158.3c3.3-0.9,5.6-3.1,7.6-5.6C2840.8,1155.2,2838.5,1157.4,2835.2,1158.3
		c11.6,24.3,20.6,49.5,25.6,75.8C2855.8,1207.8,2846.8,1182.6,2835.2,1158.3z"/>
	<path fill="none" d="M2301.6,1927.8c1.1,0,2.2,0,3.2,0C2303.7,1927.8,2302.6,1927.8,2301.6,1927.8z"/>
	<path fill="none" d="M2643.7,1426.2c19.4-1.5,38.8-2.7,58.3-2.7c0,0,0,0,0,0C2682.5,1423.5,2663.1,1424.7,2643.7,1426.2z"/>
	<path fill="none" d="M1869.1,1854.9c4.7-1.5,9.5-3.1,14.2-4.8C1878.5,1851.8,1873.8,1853.4,1869.1,1854.9z"/>
	<path fill="none" d="M270.1,286c0.1-0.3,0.2-0.5,0.4-0.8C270.4,285.5,270.3,285.7,270.1,286z"/>
	<path fill="none" d="M1763.5,1912.6c-2.8,2.6-5.7,5.1-8.6,7.5C1757.8,1917.7,1760.7,1915.2,1763.5,1912.6z"/>
	<path fill="none" d="M391.5,53.4c-4.2,1-8.4,2-12.6,2.9C383.1,55.3,387.3,54.3,391.5,53.4C391.5,53.4,391.5,53.4,391.5,53.4z"/>
	<path fill="none" d="M271,284.2c0.3-0.6,0.6-1.2,0.9-1.8C271.5,283,271.2,283.6,271,284.2z"/>
	<path fill="none" d="M2917.6,370.6c-8.1,13.4-16.2,26.7-24.3,40.1C2901.4,397.3,2909.5,383.9,2917.6,370.6
		C2917.6,370.6,2917.6,370.6,2917.6,370.6z"/>
	<path fill="none" d="M2934.3,395.2c1.3,1.6,2.6,3.1,3.9,4.7C2936.9,398.3,2935.5,396.8,2934.3,395.2z"/>
	<path fill="none" d="M1170.5,1642.2c-2.1-0.9-4.3-1.8-6.4-2.7C1166.2,1640.4,1168.3,1641.3,1170.5,1642.2z"/>
	<path fill="none" d="M768.1,2121.3c1.2-0.7,2.4-1.1,3.9-1C770.6,2120.3,769.3,2120.7,768.1,2121.3z"/>
	<path fill="none" d="M1132,2497.3c5.2-31.7,10.5-63.3,15.7-95c0,0,0,0,0,0C1142.5,2433.9,1137.2,2465.6,1132,2497.3z"/>
	<path fill="none" d="M480.2,2603.9c4,15.9,3.6,31.7-3.7,47.4c-4.9,6.6-10.5,12-17.3,15.5c6.8-3.5,12.4-8.9,17.3-15.5
		C483.8,2635.6,484.2,2619.8,480.2,2603.9z"/>
	<path fill="none" d="M894.9,2564.5c-9.8,2.4-19.5,4.2-29.3,4.8C875.4,2568.8,885.1,2567,894.9,2564.5c1.4-1.6,3.3-2.2,5.2-2.8
		C898.2,2562.4,896.3,2562.9,894.9,2564.5z"/>
	<path fill="none" d="M726.2,2554.8c6.6-16.7,12.3-33.7,17.4-50.9c0,0,0,0,0,0C738.5,2521.1,732.8,2538.1,726.2,2554.8z"/>
	<path fill="none" d="M372.7,552.9c-8.1-2.2-16.3-2.2-24.5,0.3c-0.3-2.6-2-4.1-4.1-5.3c2.1,1.2,3.8,2.7,4.1,5.3
		C356.4,550.7,364.6,550.7,372.7,552.9z"/>
	<path fill="none" d="M317.7,992.2c-5,19.1-6.4,38.8-6,58.6c-23,3.3-44.7,10.6-65.7,20c21-9.4,42.7-16.7,65.7-20
		C311.3,1030.9,312.7,1011.2,317.7,992.2z"/>
	<path fill="none" d="M279.7,2042.9c11.7,1.7,22.8,5.2,34,8.8C302.5,2048.1,291.3,2044.6,279.7,2042.9
		C279.7,2042.9,279.7,2042.9,279.7,2042.9z"/>
	<path fill="none" d="M2893.4,2682.7c0.9,2.7,2.5,5.1,4.1,7.4C2895.8,2687.8,2894.3,2685.5,2893.4,2682.7
		c-10.9-13.1-20.2-27.3-29-41.8C2873.2,2655.5,2882.4,2669.7,2893.4,2682.7z"/>
	<path fill="none" d="M2864.4,2640.9c-1.5-2.4-2.9-4.8-4.4-7.3C2861.5,2636.1,2862.9,2638.5,2864.4,2640.9z"/>
	<path fill="none" d="M2992.3,2791.1L2992.3,2791.1c-10.3-8.1-20-16.8-29.3-26C2972.3,2774.2,2982,2783,2992.3,2791.1z"/>
	<path fill="none" d="M2992.3,2088.1L2992.3,2088.1c-11.8,3.8-23.6,7.8-35.4,11.6C2968.7,2095.8,2980.5,2091.9,2992.3,2088.1z"/>
	<path fill="none" d="M2211.8,2564.8c-11.4-11.5-19.6-25-26.8-39.2C2192.2,2539.8,2200.4,2553.3,2211.8,2564.8
		c11,13.3,23.1,25.4,36.6,36C2234.9,2590.1,2222.8,2578.1,2211.8,2564.8z"/>
	<path fill="none" d="M2942.9,404.9c13.8,14.2,30.5,25.1,49.4,33.5v0C2973.4,430.1,2956.8,419.1,2942.9,404.9z"/>
	<path fill="none" d="M2280.8,2623c16.3,10.7,32.4,21.6,47.2,34.4c0.9,1.1,1.9,2.3,2.8,3.4c-0.9-1.1-1.9-2.3-2.8-3.4
		C2313.2,2644.6,2297,2633.7,2280.8,2623z"/>
	<path fill="none" d="M274.7,277.1c-1,1.7-2,3.5-2.9,5.3C272.7,280.6,273.6,278.8,274.7,277.1C274.7,277.1,274.7,277.1,274.7,277.1z
		"/>
	<path fill="none" d="M2897.9,2690.6c0.6,0.8,1.2,1.6,1.9,2.4C2899.1,2692.3,2898.5,2691.4,2897.9,2690.6z"/>
	<path fill="none" d="M1543.2,2290c0.5-0.1,1-0.3,1.5-0.4C1544.2,2289.7,1543.7,2289.9,1543.2,2290
		C1543.2,2290,1543.2,2290,1543.2,2290z"/>
	<path fill="none" d="M1202.4,1659c1.6,1.1,3.1,2.1,4.6,3.3c-1.2,0-2.5,0.3-3.8,0.2c1.2,0,2.5-0.2,3.8-0.2c5,1.1,10,2.4,14.9,4.1
		c-4.9-1.6-9.8-3-14.9-4.1C1205.5,1661.2,1204,1660.1,1202.4,1659z"/>
	<path fill="none" d="M1484,1474.4c2.7,5,5.6,10,10.4,13.4c1.9,5.2,4.6,10,7.5,14.7c-2.9-4.7-5.6-9.5-7.4-14.7
		C1489.6,1484.4,1486.7,1479.5,1484,1474.4z"/>
	<path fill="none" d="M1191.5,666.3c14.3-3.4,28.2-8.1,41.6-14.7c4.9,2.7,9.2,5.7,13.2,9c-3.9-3.3-8.3-6.3-13.2-9
		C1219.8,658.3,1205.8,662.9,1191.5,666.3z"/>
	<path fill="none" d="M1682.8,982.3c9.1-3.8,18.6-5.7,28.2-7.3C1701.4,976.6,1691.9,978.4,1682.8,982.3
		C1682.8,982.3,1682.8,982.3,1682.8,982.3z"/>
	<path fill="none" d="M1460.2,1334.6c-8,18.5-17.1,36.6-27.7,53.9c-2.5,2.3-4.3,5-6.1,7.8c1.8-2.8,3.7-5.5,6.1-7.8
		C1443.2,1371.2,1452.2,1353.1,1460.2,1334.6z"/>
	<path fill="none" d="M1484,1474.4c-0.4-0.8-0.9-1.7-1.3-2.5C1483.1,1472.8,1483.6,1473.6,1484,1474.4z"/>
	<path fill="none" d="M1874.5,547.5c-1.3,0-2.6,0-3.9,0c11.8-6.6,24.1-12.1,36.6-17.2c-12.5,5-24.8,10.6-36.6,17.2
		C1871.9,547.4,1873.2,547.5,1874.5,547.5z"/>
	<path fill="none" d="M917.6,216.6c-18.4-9.5-36.8-18.9-55.2-28.4C880.7,197.7,899.2,207.1,917.6,216.6L917.6,216.6z"/>
	<path fill="none" d="M1485.7,152.6c-12.2,11-23.7,22.7-36.1,33.6c0,0,0,0,0,0C1462,175.3,1473.4,163.5,1485.7,152.6z"/>
	<path fill="#4AB5A6" d="M27.4,1815.2c0.9-3.6,1.8-7.1,2.9-10.5c12-39.7,34.7-72.4,62-102c1.2-1.3,2.5-2.7,3.8-4
		c2.4-2.6,4.9-5.1,7.3-7.6c2.5-2.5,5-5,7.5-7.5s5.1-4.9,7.7-7.4c16.9-16.1,35.5-30.2,55.8-41.9c41.8-24.1,85-26.4,129.2-7
		c9.5,4.1,18.1,9.8,26.4,16c28.5,21.2,38.7,49.6,33,84.3c-3.1,19.1-9.3,37.4-16.1,55.5c-16.5,43.9-33.6,87.6-45.8,132.9
		c-4.3,16-9.1,32-11.1,48.5c26,7.4,52.7,11,79.4,13.6c20.7,2,41.6,2.7,62.7,1.4c52.1-3.3,101.2-18,149.8-35.6
		c29.1-10.5,57.5-22.9,85.1-37c20.8-10.6,40.3-23.4,56.3-40.7c12.4-13.4,19.9-29.1,21.8-47.2c1.4-13.7-3.2-26.4-9.9-38.1
		c-9.6-16.6-22.2-30.8-36.7-43.2c-37.1-31.5-73.5-63.6-106.3-99.5c-17.5-19.1-32.9-40.1-47.9-61.3c-17-23.9-33.3-48.2-50.7-71.7
		c-20.9-28.1-46.7-50.8-77.4-68c-29.6-16.6-61.7-26.2-94.5-34c-34.6-8.2-69.3-15.7-103.8-24.2c-35.6-8.8-70.7-19-102.9-37.2
		c-12.5-7.1-24.6-14.6-34.5-25.2c-19.8-21.4-25.5-46-17.2-73.9c7.3-24.3,20.7-45.3,37-64.5c37.9-44.6,84.2-78.1,136.8-103.2
		c3-1.4,6-2.8,9-4.1c21-9.4,42.7-16.7,65.7-20c-0.4-19.9,1-39.5,6-58.6c1.2-4.4,2.5-8.8,4.1-13.1c15.8-43.4,37.5-83.2,73-113.9
		c29.7-25.8,64.6-40.5,103.4-45.9c17.8-2.5,35.8-3.1,53.7-4.6c-5.5-9.2-13.3-16.5-20.7-24.1c-27.9-28.4-59.5-52-93.2-73
		c-23.4-14.6-46.5-29.8-66.3-49.2c-21.5-21-36.1-45.8-40.8-75.9c-0.5-3.3-0.9-6.6-0.8-9.9c0.2-13.3,5-24,18.1-29.3
		c-0.3-2.6-2-4.1-4.1-5.3c-32.8-18.8-53-47.7-66-82.4c-10.3-27.5-16.5-55.8-18.8-85.3c-1.9-24.8-0.5-49.1,4.6-73.3
		c0.1-0.7,0.3-1.3,0.4-2c1.4-6.5,3.3-12.9,5.9-19c0.1-0.3,0.2-0.5,0.4-0.8c0.1-0.3,0.3-0.7,0.5-1c0.3-0.6,0.6-1.2,0.9-1.8
		c0,0,0,0,0,0c0.9-1.8,1.8-3.6,2.9-5.3c-3.3-14.8-6.4-29.7-8.4-44.8c-0.7-5-1.2-10.1-1.6-15.1c-2.6-36.7,3.1-71.5,21.3-103.9
		c9.8-17.4,23.6-30.3,41.2-39.2c16.4-8.3,33.8-13.7,51.6-17.8c4.2-1,8.4-2,12.6-2.9c-2.9-15.2-5.8-30.4-8.7-45.6H7.7v502.8
		c24.9-3.7,49.8-3.5,74.4,3.5c33.1,9.4,50.4,36.8,44.8,71c-3.6,21.7-13.2,41.1-24.1,59.9c-14.6,25-33.6,46.3-55.2,65.3
		C34.4,721.7,21,733,7.7,744.5v1057.2c0.6,0.5,1.2,1,1.9,1.5C15.4,1807.3,20.2,1813,27.4,1815.2z"/>
	<path fill="#4AB5A6" d="M1043.3,2926c11.2-9.4,22.7-18.5,33.9-28c36.3-31,61-69,70.6-116.3c2.5-12.4,5.9-24.6,10.7-36.3
		c7.3-18,23.8-26.4,42.8-21.6c12.6,3.2,24.5,8.3,36.3,13.8c17.7,8.4,35.3,17.1,53,25.4c15.1,7,30.8,12.1,47.6,13.8
		c22.5,2.3,42.9-2.9,61.4-15.7c17.4-12,31.6-27.5,44.5-44.1c15.7-20.3,29.5-41.9,43.6-63.3c8.1-12.2,16.4-24.2,24.8-36.2
		c1.8-2.6,3.4-5.7,6.4-7.3c0.1-0.5,0.2-0.9,0.4-1.2c0.3-0.4,0.7-0.6,1.2-0.8c0.6-1,1.2-2,1.7-3c1.2-2,2.4-3.9,3.6-5.9
		c3.1-4.8,6.6-9.4,10.9-13.4c0.2-0.7,0.4-1.4,0.9-1.7c0.3-0.2,0.7-0.3,1.2-0.1c0.1-6.1,4.8-9.8,7.9-14.1
		c12.8-17.4,26.1-34.5,39-51.8c11.6-15.5,22.3-31.5,29.3-49.7c13.7-35.7,10.9-69.7-10.1-101.9c-0.7-1-1.3-2.1-2-3.1
		c-10.2-15.4-21-30.1-35.7-41.7c-2.5,18.6-8.6,35.7-18.6,51.1c-1.5,2.4-3.2,4.7-4.9,7c-0.9,1.2-1.8,2.3-2.7,3.4
		c-12.8,15.8-28.6,27.8-45.6,38.4c-34.3,21.6-71.8,34.9-111.9,40c-27.5,3.5-55,1.2-82.2-4.3c-31.1-6.4-60.6-17.6-89.7-29.9
		c-18.1-7.6-36.1-15.3-54.3-22.8c-3-1.3-6.1-2.8-9.6-2.5c-5.2,31.7-10.5,63.3-15.7,95c-2,12-3.9,23.9-5.8,35.9
		c-2.8,17.7-4.7,35.6-7.1,53.4c-1.1,8.2-3.3,16.3-6,24.2c-6.5,19.3-20.8,29.8-41.5,29.2c-19-0.5-37.7-3.7-56.1-8.1
		c-21.4-5.1-42.1-12.1-61.9-21.9c-22.7-11.2-42.3-26.3-58.8-45.5c-9.8,2.4-19.5,4.2-29.3,4.8c-9.8,0.6-19.7,0-29.7-2.3
		c-21.2-4.9-39.4-15.4-56-29c-1.6-1.3-3.2-2.7-4.7-4c-10.9-9.6-20.6-20.5-31.4-30.1c-5.2,17.2-10.9,34.2-17.4,50.9
		c-2.2,5.6-4.5,11.1-6.9,16.6c-20.9,47.7-56.6,76.5-108.5,85.1c-20.8,3.4-41.5,4.7-62.5,3.7c-20.2-1-40.3-3.1-60.2-6.7
		c-3.9-0.7-7.8-1.4-11.7-2.1c-4.9,6.6-10.5,12-17.3,15.5c-0.1,0-0.1,0.1-0.2,0.1c-2.7,1.4-5.6,2.4-8.7,3.2c-1.6,0.4-3.2,0.7-4.9,0.9
		c-7.5,0.9-14.6-0.6-21.5-3.2c-9.7-3.6-19-8.1-28-13.1c-38-21.3-78.4-36-121.4-43.5c-28.2-5-56.6-8.5-85.3-7.2
		c-33.3,1.5-59.1,16.3-77.4,44c-9.6,14.5-16.2,30.5-22.3,46.7c-12.9,34.6-26.4,69-43.8,101.6c-10.8,20.3-22.9,39.8-37.3,57.8
		c-0.3,0.4-0.6,0.8-0.9,1.2v137h689.8c7.9-28.7,19.5-55.8,37.7-79.8c14.3-18.9,32-33.7,53.2-44.3c31.6-15.8,63.4-16,95.1-0.7
		c41.3,19.9,70,52.1,89.9,92.8c5.1,10.4,9.5,21.1,13.3,32.1h10c1.8-6.1,4.7-11.8,7.7-17.4C1014.2,2956.1,1027.1,2939.7,1043.3,2926z
		"/>
	<path fill="#F58F39" d="M2958.4,2760.5c-20.6-20.8-40.1-42.6-57.6-66.1c-0.3-0.5-0.7-0.9-1-1.4c-0.6-0.8-1.2-1.6-1.9-2.4
		c-0.1-0.2-0.3-0.3-0.4-0.5c-1.7-2.3-3.2-4.6-4.1-7.4c-10.9-13.1-20.2-27.3-29-41.8c-1.5-2.4-2.9-4.8-4.4-7.3
		c-1.4-2.4-2.9-4.9-4.3-7.3c-25.5-43.4-46.3-89.2-68.3-134.3c-14.5-29.6-29.7-58.8-47.2-86.8c-17.6-28.3-39.3-52.8-66.6-72
		c-2.5-0.9-5.1-1.7-7.5-2.8c-16.9-7.7-34.6-11.9-53.1-12.3c-61.9-1.1-122.3,8.5-179.9,30.6c-60.4,23.1-103.8,66.1-132.5,123.8
		c-9.1,18.3-14.4,37.9-16.3,58.3c-2.2,24.1,2.9,47,12.3,69c6.7,15.7,14.8,30.5,24.6,44.5c2.8,4,6.8,7.5,6.7,13
		c0.9,1.1,1.9,2.3,2.8,3.4c0.4,0.5,0.8,1,1.2,1.5c1.5,0.7,2.9,1.6,3.9,2.7c1,1.1,1.7,2.5,1.8,4.4c0.1,0.4,0.2,0.8,0.4,1.2
		c1.7,1.6,3.6,3,5.1,4.7c0.2,0.2,0.4,0.5,0.6,0.8c21.3,28.4,43.8,56,61.2,87.3c17.6,31.7,26.9,65.9,28,101.9
		c0.7,22.2-3.7,44.3-7.9,66.2c-4,20.6-9.9,40.7-15.2,60.9h582.4v-201.2c-10.3-8.1-20-16.8-29.3-26
		C2961.4,2763.6,2959.9,2762,2958.4,2760.5z"/>
	<path fill="#303133" d="M2265.8,2955.9c3.7-11.9,10.8-22.1,17.7-32.2c10.7-15.6,21.9-31,32.4-46.7c17.8-26.8,31.3-55.5,38.8-87
		c6.7-28.2,5.8-56.1-1.3-83.9c-2.5-9.7-6.3-18.9-11.7-27.4c-1.6-2.5-3.4-5-3.6-8.1c-0.2-0.4-0.3-0.8-0.4-1.2c-3.5-1-5.6-3.3-5.7-7.1
		c-0.4-0.5-0.8-1-1.2-1.5c-0.9-1.1-1.9-2.3-2.8-3.4c-14.8-12.8-30.9-23.7-47.2-34.4c-2-1.3-3.9-2.6-5.9-3.9
		c-4.2-2.8-8.4-5.5-12.6-8.3c-2.4-1.6-4.8-3.2-7.1-4.9c-2.3-1.7-4.6-3.4-6.8-5.2c-13.5-10.6-25.6-22.7-36.6-36
		c-11.4-11.5-19.6-25-26.8-39.2c-2.4-4.7-4.6-9.5-6.8-14.4c-9.7-21.5-16.5-44.1-25.5-65.8c-7.8-19-16.5-37.7-26.3-55.7
		c-0.9-1.7-1.4-3.7-2.1-5.5c-28-42.5-64.9-77.3-98.8-114.8c-16.9-18.8-32.9-38.4-49-57.8c-26-31.3-59.3-49.4-99-56.9
		c-14.3-2.7-28.6-5.9-43-8.6c-23.6-4.3-45.4-12.3-63.7-28.5c-2.3,20.8-3.9,41.7-10.3,61.9c-11,34.6-29.6,63.8-59.8,84.8
		c-21.4,14.9-45.5,21.4-70.9,24.3c-28.2,3.1-56.4,3.1-84.7,1c-0.2,0-0.3,0-0.5,0c-0.5,0.1-1,0.3-1.5,0.4c3.5,6.7,8.5,12.2,13.6,17.5
		c1.7,1.8,3.5,3.5,5.2,5.3c2.5,2.6,5.5,4.9,5.2,9.1c0,0,0,0,0,0c14.7,11.5,25.6,26.3,35.7,41.7c0.7,1,1.4,2.1,2,3.1
		c21.1,32.2,23.8,66.2,10.1,101.9c-7,18.2-17.8,34.2-29.3,49.7c-12.9,17.3-26.2,34.4-39,51.8c-3.2,4.3-7.8,8-7.9,14.1
		c0,0,0.1,0,0.1,0c0,0.1,0,0.1,0,0.2c0.6-0.1,1.4,0.1,1.9-0.2c22.1-13.8,47.2-17.4,72.1-21.6c23.7-4,47.6-5.8,71.5-5.8
		c75.2,0,143.8,20.3,202.2,69.5c24.1,20.3,44.5,44,62.3,69.9c36,52.4,71.7,104.9,104.1,159.6c25,42.2,45.4,86.5,59.6,133.6
		c0.3,1,0.7,1.9,1,2.9h138.7c2.2-8.8,4.4-17.7,8.1-26.1C2261.9,2962.7,2263,2958.9,2265.8,2955.9z"/>
	<path fill="#303133" d="M45.9,2796.3c17.4-32.7,30.9-67,43.8-101.6c6-16.2,12.7-32.2,22.3-46.7c18.3-27.8,44.1-42.6,77.4-44
		c28.7-1.3,57.1,2.3,85.3,7.2c42.9,7.6,83.4,22.2,121.4,43.5c9,5,18.3,9.5,28,13.1c6.9,2.6,13.9,4,21.5,3.2c1.7-0.2,3.3-0.5,4.9-0.9
		c3.1-0.7,6-1.8,8.7-3.2c0.1,0,0.1-0.1,0.2-0.1c6.8-3.5,12.4-8.9,17.3-15.5c7.3-15.7,7.7-31.5,3.7-47.4c-0.7-2.9-1.6-5.9-2.7-8.8
		c-6.2-17.9-12.4-35.8-14.8-54.8c-2.8-22-2-43.8,5.1-65.1c4.3-12.8,11.3-23.9,22-32.7c11.1-9.1,23.5-11.8,37.3-9.3
		c17.8,3.3,34.4,10.2,50.8,17.4c28.8,12.6,58.5,22,89.9,24.8c18.2,1.6,36.5,1.8,54.8,1c-2.4-5.6-6-10.3-9.5-15.2
		c-20.6-28.6-39.4-58.4-58.8-87.8c-7.3-11.1-13.8-22.7-19.7-34.7c-1.6-3.3-3.1-6.6-4.6-10c-11.1-25.3-7.9-48.5,9.6-69.9
		c13.8-16.8,29.4-31.6,45.4-46.2c18.9-17.2,38.5-33.7,56.6-51.9c10.3-10.4,20-21.3,28.4-33.4c1.5-2.1,3.6-3.9,3.4-6.8
		c0,0-0.1,0-0.1,0l0,0h0c0-0.1,0-0.1,0-0.1c-0.5-0.1-1-0.2-1.4-0.2c-1.5-0.1-2.7,0.3-3.9,1c-0.4,0.2-0.8,0.5-1.1,0.7
		c-1.1,0.8-2.2,1.7-3.2,2.4c-48.1,34-102.7,50.6-160,60.3c-14.8,2.5-29.6,3.5-44.6,4c-36.4,1.2-66.8-11.9-92.9-36.5
		c-16-15.1-32-30-48.2-44.9c-27-24.8-58.7-41.2-93.3-52c-3.7-1.2-7.4-2.4-11.1-3.6c-11.1-3.6-22.3-7.1-34-8.8
		c-1.7,4.6-1.5,9.4-1.2,14.1c0.1,1.6,0.2,3.1,0.2,4.7c1.3,38.4,7.3,76.1,18.5,113c3.3,10.8,5.6,21.9,7.2,33.1
		c4.4,30.7-12.1,52-43.4,54.4c-34.8,2.6-67.5-5-97.4-23.2c-23.1-14-38.6-34.3-47.7-59.6c-8.2-23-12.7-46.8-17.9-70.6
		c-7-32.2-14.1-64.3-24.7-95.6c-1.2-3.4-2.8-6.7-4.2-10.1c-20.4,0.9-40.4,4-60.4,7.9c-0.3,0.1-0.6,0.1-0.9,0.2v110.7
		c10.9,8.1,20.3,17.9,29.6,27.7c21,22,39,46.3,54.8,72.2c18.3,30,28.6,62.1,25.9,97.7c-1.5,20.8-7.5,40.4-15.8,59.5
		c-13.6,30.9-32,58.3-57.9,80.3c-10.9,9.2-22.9,16.5-36.7,19.8v376.3c0.3-0.4,0.6-0.8,0.9-1.2C23,2836.1,35.1,2816.6,45.9,2796.3z"
		/>
	<polygon fill="#303133" points="773.4,2120.6 773.4,2120.6 773.4,2120.6 773.4,2120.6 	"/>
	<path fill="#F58F39" d="M2052.8,2855.8c-32.4-54.7-68.1-107.3-104.1-159.6c-17.8-25.9-38.2-49.6-62.3-69.9
		c-58.4-49.2-127-69.5-202.2-69.5c-23.9,0-47.9,1.8-71.5,5.8c-24.9,4.2-50,7.8-72.1,21.6c-0.5,0.3-1.2,0.2-1.9,0.2
		c-0.2,1.1-1.1,1.6-2.1,1.7c-4.2,4-7.7,8.6-10.9,13.4c-1.3,1.9-2.5,3.9-3.6,5.9c-0.6,1-1.2,2-1.7,3c-0.1,1,0.1,2.2-1.5,2.1
		c0.2,0.9,0.7,1.8,0.5,2.7c-4.6,25.5,0.2,50.2,6.3,74.9c21.2,86.7,57.9,166.7,105.6,241.8c12.8,20.2,25.8,40.3,38.6,60.5
		c0.4,0.7,0.9,1.3,1.4,2h442.3c-0.3-1-0.7-1.9-1-2.9C2098.3,2942.3,2077.9,2898,2052.8,2855.8z"/>
	<path fill="#303133" d="M1631.3,2929.8c-47.6-75.2-84.4-155.1-105.6-241.8c-6-24.7-10.9-49.3-6.3-74.9c0.2-0.8-0.3-1.8-0.5-2.7
		c-0.1,0-0.1,0-0.2,0c0,0,0-0.1,0-0.1c0,0,0,0,0,0c-3,1.7-4.5,4.7-6.4,7.3c-8.4,12-16.7,24-24.8,36.2c-14.1,21.4-27.9,43-43.6,63.3
		c-12.9,16.6-27.1,32.1-44.5,44.1c-18.5,12.7-38.8,18-61.4,15.7c-16.8-1.7-32.5-6.8-47.6-13.8c-17.8-8.3-35.3-17-53-25.4
		c-11.7-5.5-23.6-10.6-36.3-13.8c-19-4.8-35.4,3.6-42.8,21.6c-4.8,11.7-8.2,23.9-10.7,36.3c-9.6,47.3-34.3,85.3-70.6,116.3
		c-11.1,9.5-22.7,18.5-33.9,28c-16.3,13.7-29.2,30.1-39,48.9c-2.9,5.6-5.9,11.3-7.7,17.4h674.5c-0.5-0.7-0.9-1.3-1.4-2
		C1657,2970.1,1644.1,2950,1631.3,2929.8z"/>
	<path fill="#F58F39" d="M883.4,2867.4c-31.7-15.2-63.5-15.1-95.1,0.7c-21.2,10.6-38.9,25.4-53.2,44.3
		c-18.1,24.1-29.8,51.1-37.7,79.8h289.2c-3.8-11-8.2-21.7-13.3-32.1C953.5,2919.5,924.7,2887.3,883.4,2867.4z"/>
	<path fill="#798388" d="M102.3,2378.9c8.4-19,14.3-38.6,15.8-59.5c2.6-35.6-7.7-67.7-25.9-97.7c-15.8-26-33.8-50.2-54.8-72.2
		c-9.3-9.8-18.8-19.5-29.6-27.7V2479c13.8-3.3,25.8-10.5,36.7-19.8C70.2,2437.2,88.7,2409.8,102.3,2378.9z"/>
	<path fill="#4AB5A6" d="M2425.1,2931.4c4.2-21.9,8.6-44,7.9-66.2c-1.1-36-10.4-70.2-28-101.9c-17.3-31.3-39.8-58.9-61.2-87.3
		c-0.2-0.3-0.4-0.5-0.6-0.8c-1.5-1.7-3.4-3.1-5.1-4.7c0,0,0,0,0,0c0.2,3.1,2,5.6,3.6,8.1c5.5,8.5,9.3,17.7,11.7,27.4
		c7.1,27.8,8,55.7,1.3,83.9c-7.5,31.5-21,60.2-38.8,87c-10.5,15.8-21.7,31.1-32.4,46.7c-7,10.1-14,20.3-17.7,32.2
		c3.6,11.8,7.2,23.5,10.9,35.3c0.1,0.4,0.2,0.7,0.3,1.1h132.9C2415.2,2972,2421.1,2952,2425.1,2931.4z"/>
	<path fill="#303133" d="M102.9,644.8c10.9-18.7,20.5-38.1,24.1-59.9c5.6-34.2-11.7-61.6-44.8-71c-24.7-7-49.5-7.2-74.4-3.5v234
		C21,733,34.4,721.7,47.6,710.1C69.3,691.1,88.3,669.8,102.9,644.8z"/>
	<path fill="#798388" d="M69.1,2003.1C69.1,2003.1,69.1,2003.1,69.1,2003.1c-3.2-14.3-8.1-27.9-13.2-41.6c-0.7-1.9-1.5-3.9-2.2-5.8
		c-11.5-30.6-21.4-61.5-26.6-93.9c-1.9-12.3-1.9-24.4-0.5-36.7c0.4-3.3,0.6-6.6,0.8-9.9h0c-7.2-2.1-12-7.8-17.9-12
		c-0.6-0.5-1.3-1-1.9-1.5v209.5c0.3-0.1,0.6-0.1,0.9-0.2C28.6,2007.1,48.7,2004,69.1,2003.1z"/>
	<path fill="#798388" d="M2265.8,2955.9c-2.7,3-3.9,6.8-5.5,10.3c-3.8,8.4-5.9,17.2-8.1,26.1h24.9c-0.1-0.4-0.2-0.7-0.3-1.1
		C2273,2979.5,2269.4,2967.7,2265.8,2955.9z"/>
	<path fill="#798388" d="M773.4,2120.2c0.1-0.5,0.3-0.8,0.6-1c0.4-0.3,1-0.5,1.5-0.6c14.4-19,21.8-40.9,25.8-64.1
		c4.7-27.4,5-54.9,2.8-82.5c-1-12.6-1.1-25.2-2-37.8c-2.4-32.5-3.9-65.1-2.7-97.7c0.4-11,2.1-21.8,4.9-32.5
		c7.3-28.4,24.9-48,52-59.1c22.5-9.3,46-15.4,69.7-20.6c62.4-13.6,123.6-31.6,185.1-48.4c19.9-5.4,39.7-10.8,60.2-13.7
		c10.3-1.4,20.4-2.4,30.7,0.2c0.4,0.1,0.8,0.1,1.2,0.2c1.2,0,2.5-0.2,3.8-0.2c-1.5-1.1-3-2.2-4.6-3.3c-2.9-2-5.9-3.8-9-5.6
		c-1.4-0.8-2.9-1.6-4.4-2.4c-1.5-0.8-2.9-1.5-4.4-2.3c-1.9-0.9-3.8-1.9-5.7-2.7c-1.8-0.8-3.5-1.6-5.3-2.4c-1.1-0.5-2.1-0.9-3.2-1.4
		c-2.1-0.9-4.3-1.8-6.4-2.7c-2.1-0.9-4.3-1.8-6.4-2.7c-33.6-14.2-68.1-26.4-101.2-41.8c-15.4-7.2-30.1-15.6-43.4-26.2
		c-25.9-20.6-32.4-49.4-18.2-79.2c7.9-16.6,18.8-31.4,29.8-45.9c9.8-13,20.4-25.3,30.7-38c-5.2-8.5-10.4-17-15.5-25.5
		c-24.7-40.9-41.4-84.6-48-132c-1.6-11.5-2.1-23.1-3-34.7c0,0,0,0,0,0c0,0,0,0,0,0c-16,0.7-31.8-0.3-47.5-2.8
		c-5.2-0.8-10.5-1.8-15.7-3c-1.9-0.4-3.9-0.4-5.9-0.6c-11.1,12.9-22.5,25.4-36.2,35.5c-3.2,2.3-6.4,4.5-9.9,6.6
		c-22.5,13.4-46.6,22.5-71.5,29.9c-21.3,6.3-43.1,11.4-65.2,13.5c-26.4,2.6-53,2.8-79-3.7c-32.8-8.2-57.8-27.4-77.1-54.7
		c-14-19.9-25.4-41.3-38.3-61.8c-12.6-20.1-26.8-38.8-43.9-55.3c-2.8-2.7-6.1-5.2-7.5-9.2c-19.2,6.2-37.9,14.4-58.3,16.6
		c-19.5,2.1-39.1,3.2-58.2-3c-31-10.1-51.8-30.1-60-62.2c-0.7-2.8-0.6-6-3-8.3c-23,3.3-44.7,10.6-65.7,20c-3,1.3-6,2.7-9,4.1
		c-52.6,25.1-98.9,58.6-136.8,103.2c-16.3,19.2-29.7,40.1-37,64.5c-8.4,27.8-2.7,52.5,17.2,73.9c9.9,10.6,22,18.2,34.5,25.2
		c32.2,18.2,67.3,28.4,102.9,37.2c34.5,8.5,69.3,16,103.8,24.2c32.8,7.8,64.8,17.3,94.5,34c30.7,17.2,56.5,39.9,77.4,68
		c17.4,23.5,33.8,47.8,50.7,71.7c15,21.1,30.4,42.1,47.9,61.3c32.9,35.9,69.3,68.1,106.3,99.5c14.5,12.3,27.1,26.6,36.7,43.2
		c6.7,11.7,11.3,24.4,9.9,38.1c-1.9,18.1-9.4,33.8-21.8,47.2c-16.1,17.3-35.5,30.1-56.3,40.7c-27.6,14.1-55.9,26.5-85.1,37
		c-48.6,17.6-97.6,32.3-149.8,35.6c-21.1,1.3-41.9,0.6-62.7-1.4c-26.7-2.5-53.4-6.2-79.4-13.6c-4.3,15.3-6.1,31.1-8,46.8
		c-1.2,10.5-1.6,21.1-2.4,31.6c11.7,1.7,22.8,5.2,34,8.8c3.7,1.2,7.4,2.4,11.1,3.6c34.7,10.9,66.4,27.3,93.3,52
		c16.2,14.9,32.2,29.8,48.2,44.9c26.1,24.7,56.5,37.8,92.9,36.5c15-0.5,29.8-1.5,44.6-4c57.2-9.7,111.9-26.3,160-60.3
		c1.1-0.8,2.1-1.7,3.2-2.4c0.4-0.3,0.8-0.5,1.1-0.7c1.2-0.7,2.4-1.1,3.9-1c0.4,0,0.9,0.1,1.4,0.2v0
		C773.4,2120.4,773.4,2120.3,773.4,2120.2z M716,1411.7c-10.9,16.4-35.4,29.4-59.1,13.6c-12.9-8.6-22.3-29-5.1-46.3
		c10.2-10.2,23.3-15,37.5-16.1c12.9,1,23.5,6.1,29.5,17.7C724.4,1391.3,722.5,1401.9,716,1411.7z"/>
	<path fill="#798388" d="M773.4,2120.6c0,0,0,0.1,0,0.1h0C773.4,2120.7,773.4,2120.6,773.4,2120.6
		C773.4,2120.6,773.4,2120.6,773.4,2120.6z"/>
	<path fill="#798388" d="M348.2,553.2c8.2-2.6,16.4-2.5,24.5-0.3c1.2,0.3,2.3,0.7,3.5,1.1c4.1,1.4,8.1,2.9,12.1,4.5
		c6.6,2.7,13.2,5.6,19.4,9.2c21.1,0.5,42.2,1.3,63.3,1.8c0.2,0,0.4,0,0.6,0c8.4,0.2,16.8,0.4,25.2,0.5c4.2,0.1,8.5,0.1,12.7,0.1
		c18.9,0.1,37.9,1.6,56.7,3.7c38.1,4.4,75.3,12.8,110.9,27.4c31.9,13,61.7,29.8,90.8,47.9c38.5,23.9,75.1,50.5,109.5,80
		c28.4,24.5,50.5,53.9,62.2,90.1c1.9,6,5.4,11.5,5.8,18c28.5,5.5,57.3,6.8,86.3,6.4c20.2-0.3,40.5-0.5,60.7-1.8
		c43.8-2.8,79.1-20.7,105.9-55.4c12.8-16.6,25.6-33.1,38.4-49.7c1.8-2.4,3.8-4.7,5.7-7c8.6-9.8,18.4-18.1,29.8-24.6
		c-4-18.2-12.3-33.3-25.8-44.7c-3.9-3.3-8.3-6.3-13.2-9c-13.3,6.7-27.3,11.3-41.6,14.7c-8.6,2.1-17.3,3.7-26,5.1
		c-12.8,2.1-25.6,4.3-38.6,3.8c-15.6-0.7-31-2.6-46-7.7c-26.1-8.9-45.1-26.1-59.3-49.4c-27.2-1.5-54.3-4.4-81.1-10
		C890,597.5,856.4,567.8,838,520c-9.9-25.6-15-52.3-18.6-79.5c-3.7-28-2.2-55.7,3.5-83.3c0-0.2,0.1-0.5,0.1-0.7
		c0.1-0.5,0.1-1,0.1-1.5c0-1.2-0.1-2.5-0.1-3.7c-21.2-11.6-42.5-23.1-63.7-34.6c-1.8-1-3.3-2.2-3.8-4.3c0,0,0,0,0,0
		c-21.9-4.7-43.9-6.3-66-6.1c0,0-0.1,0-0.1,0c-3.9,0-7.9,0.1-11.8,0.2c-2.1,0.1-4.1,0.1-6.2,0.2c-4,0.2-8.1,0.4-12.1,0.6
		c-16.3,1-32.6,1.5-48.8,2.5c-20.9,1.3-41.8,2.7-62.6,5.2c-9.9,1.2-19.9,2.2-29.8,2.3c-35.8,0.6-70.6,7.8-105.5,15.1
		c-18.2,3.8-36.4,7.9-54.6,11.6c-25.3,5.2-50.3-5.5-64.4-27.4c-6.5-10.2-10.9-21.3-15.2-32.5c-1-2.5-1.5-5.1-3.5-7.1
		c-1,1.7-2,3.5-2.9,5.3c0,0,0,0,0,0c-0.3,0.6-0.6,1.2-0.9,1.8c-0.2,0.3-0.3,0.7-0.5,1c-0.1,0.3-0.2,0.5-0.4,0.8
		c-2.6,6.1-4.4,12.5-5.9,19c-0.1,0.7-0.3,1.3-0.4,2c-5.1,24.2-6.5,48.4-4.6,73.3c2.3,29.5,8.5,57.8,18.8,85.3
		c13,34.7,33.2,63.6,66,82.4C346.1,549.2,347.9,550.6,348.2,553.2z"/>
	<path fill="#303133" d="M641.2,841c30.2,23.3,41.2,54.3,33.3,91.7c-1.7,8.1-3.8,16.1-5.8,24.2c28.8,22.7,56.3,46.5,81.2,73
		c7.2,7.7,14.2,15.6,21,23.7c6.9,8.4,13.6,17,20,25.9c12.9,18.2,24.7,37.1,36.7,55.9c11,17.2,23.9,32.8,40.4,45.1
		c14.2,10.6,29.4,19.4,47,23c2,0.4,3.7,1.4,4.7,3.3c2,0.2,4,0.2,5.9,0.6c5.2,1.1,10.4,2.1,15.7,3c15.7,2.5,31.5,3.6,47.5,2.8
		c0,0,0,0,0,0c1-12.6,2.3-25.1,4.6-37.5c0.9-5,2-10,3.3-14.9c1.5-5.7,3.2-11.4,5.3-16.9c11.3-30.6,30.6-55.8,52.9-79
		c21.8-22.6,46.4-41.9,70.3-62c26.5-22.2,52.6-45,75.9-70.6c39.8-43.6,65.6-94.1,75-152.6c3.2-20.2,3.6-40.4,0.6-60.6
		c-0.7-4.9-1.7-9.9-4.6-14.1c-11.4,6.5-21.2,14.9-29.8,24.6c-2,2.3-3.9,4.6-5.7,7c-12.8,16.6-25.6,33.1-38.4,49.7
		c-26.8,34.7-62.1,52.6-105.9,55.4c-20.3,1.3-40.5,1.5-60.7,1.8c-28.9,0.4-57.8-0.9-86.3-6.4c-22.6-2.3-44.4-8.2-66-14.9
		c-26.5-8.1-51.8-19.1-76.3-31.7c-49.1-25.3-99.2-48.3-149.3-71.4c-52.4-24.2-101.5-54.2-149-86.9c-29.3-20.2-59-39.9-89.1-59
		c-2.8-1.8-5.3-3.9-8-5.8c-6.3-3.6-12.8-6.5-19.4-9.2c-4-1.6-8-3.1-12.1-4.5c-1.2-0.4-2.3-0.8-3.5-1.1c-8.1-2.2-16.3-2.2-24.5,0.3
		c-13.2,5.4-18,16-18.1,29.3c0,3.3,0.3,6.6,0.8,9.9c4.7,30.1,19.3,54.9,40.8,75.9c19.9,19.4,42.9,34.6,66.3,49.2
		c33.6,21,65.3,44.6,93.2,73c7.4,7.6,15.2,14.9,20.7,24.1c6.6,2.6,13.6,2.3,20.5,3C597.2,820,621.2,825.6,641.2,841z"/>
	<path fill="#F58F39" d="M282.1,2011.3c1.9-15.7,3.7-31.5,8-46.8c2-16.6,6.7-32.5,11.1-48.5c12.2-45.4,29.4-89,45.8-132.9
		c6.8-18.1,12.9-36.4,16.1-55.5c5.7-34.6-4.5-63-33-84.3c-8.3-6.2-16.9-11.8-26.4-16c-44.2-19.3-87.3-17.1-129.2,7
		c-20.3,11.7-38.8,25.8-55.8,41.9c-2.6,2.4-5.1,4.9-7.7,7.4s-5,5-7.5,7.5c-2.5,2.5-4.9,5-7.3,7.6c-1.3,1.3-2.5,2.7-3.8,4
		c-27.3,29.6-50.1,62.3-62,102c-1,3.5-2,7-2.9,10.5c-0.3,3.3-0.4,6.6-0.8,9.9c-1.5,12.3-1.5,24.4,0.5,36.7
		c5.1,32.4,15.1,63.4,26.6,93.9c0.7,1.9,1.5,3.9,2.2,5.8c5.1,13.6,10.1,27.3,13.2,41.6c0,0,0,0,0,0c1.4,3.4,3,6.7,4.2,10.1
		c10.6,31.3,17.8,63.4,24.7,95.6c5.1,23.7,9.6,47.6,17.9,70.6c9.1,25.3,24.6,45.6,47.7,59.6c29.9,18.2,62.6,25.9,97.4,23.2
		c31.4-2.4,47.8-23.7,43.4-54.4c-1.6-11.2-3.9-22.3-7.2-33.1c-11.2-36.8-17.2-74.5-18.5-113c-0.1-1.6-0.2-3.1-0.2-4.7
		c-0.3-4.7-0.4-9.5,1.2-14.1c0,0,0,0,0,0C280.4,2032.4,280.8,2021.8,282.1,2011.3z"/>
	<path fill="#303133" d="M278.2,284.2c4.3,11.2,8.7,22.3,15.2,32.5c14,21.9,39.1,32.6,64.4,27.4c18.2-3.8,36.4-7.8,54.6-11.6
		c34.8-7.3,69.6-14.5,105.5-15.1c10-0.2,19.9-1.2,29.8-2.3c20.8-2.5,41.7-3.9,62.6-5.2c16.3-1,32.6-1.5,48.8-2.5
		c4-0.2,8.1-0.5,12.1-0.6c2.1-0.1,4.1-0.2,6.2-0.2c3.9-0.1,7.9-0.2,11.8-0.2c0,0,0.1,0,0.1,0c22.1-0.2,44.2,1.4,66,6.1c0,0,0,0,0,0
		c0,0,0,0,0,0c20.1,1.5,38.1,8.8,55.8,17.3c4.1,2,8.1,4,12.2,6c3.9-20.7,15.2-37.1,29.7-51.7c19.3-19.6,38.4-39.4,57.5-59.1
		c2.5-2.6,4.8-5.5,7.1-8.2c-18.4-9.5-36.8-18.9-55.2-28.4c-7-3.6-14.1-7.3-21.1-11c-8.4-4.5-16.8-9-25.2-13.6
		c-51.8-28.6-105.4-53.2-160-75.9c-3.9-1.6-8.1-2.8-11.6-5.6c-21.6-6.5-43.1-13-64.8-19.3c-46.1-13.4-93.2-17.2-140.8-14.4
		c-15.9,0.9-31.6,3.2-47.5,4.9c-4.2,1-8.4,2-12.6,2.9c-17.8,4.1-35.2,9.5-51.6,17.8c-17.7,9-31.5,21.9-41.2,39.2
		c-18.2,32.4-23.9,67.2-21.3,103.9c0.4,5.1,0.9,10.1,1.6,15.1c2,15.1,5.1,29.9,8.4,44.8c0,0,0,0,0,0
		C276.7,279,277.2,281.7,278.2,284.2z"/>
	<path fill="#F58F39" d="M311.7,1050.8c2.4,2.2,2.3,5.5,3,8.3c8.2,32.2,29,52.2,60,62.2c19.1,6.2,38.7,5.1,58.2,3
		c20.3-2.2,39-10.4,58.3-16.6c30.8-15.1,60.8-31.6,88.4-51.9c25.3-18.5,49.5-38.2,68-64c8-11.1,14.1-23.3,21.1-35
		c1.9-8.1,4.1-16.1,5.8-24.2c7.9-37.4-3-68.4-33.3-91.7c-20-15.4-44-21.1-68.8-23.3c-6.9-0.6-13.9-0.4-20.5-3
		c-17.9,1.5-35.9,2.1-53.7,4.6c-38.9,5.4-73.7,20.1-103.4,45.9c-35.5,30.7-57.2,70.5-73,113.9c-1.6,4.3-2.9,8.7-4.1,13.1
		C312.7,1011.2,311.3,1030.9,311.7,1050.8z"/>
	<path fill="#798388" d="M391.5,53.4c15.8-1.7,31.6-4,47.5-4.9c47.7-2.7,94.8,1.1,140.8,14.4c21.6,6.3,43.2,12.9,64.8,19.3
		c1.1-7.2,5.9-12.6,9.3-18.6c10.7-18.4,21.2-36.9,30.8-55.9H382.8C385.7,22.9,388.6,38.1,391.5,53.4
		C391.5,53.4,391.5,53.4,391.5,53.4z"/>
	<path fill="#F58F39" d="M1745.2,2008.3c-4.3-14.5-8.4-29-11.1-43.9c-1.1-5.9-1.9-12-2.4-18c0,0-0.4-0.4-0.4-0.4l0.3-0.5
		c-0.2-0.7-0.3-1.4-0.4-2.1c-0.1-0.7-0.2-1.4-0.2-2.1c0,0,0,0,0,0c0-1.4,0-2.8,0.3-4.3c-0.8-7.2-1.3-14.3-1.3-21.4
		c0-1.3,0-2.6,0-3.9c0-2.2,0.1-4.4,0.3-6.6c0.2-2.4,0.4-4.9,0.7-7.3c0.7-5.9,1.9-11.7,3.7-17.6c2-6.7,4.5-13.1,8.8-18.6
		c7.8-14.1,19.9-22.9,34.9-28.1c22.1-7.7,44.9-12,67.7-16.5c37-7.2,72.9-18.1,107-34.2c30.4-14.4,56.8-34.6,80.1-58.7
		c57.2-59.1,102.4-126.6,136.4-201.5c8.3-18.2,14.4-37.2,17.5-57.1c5.9-37.7-4.2-69.8-33.9-94.8c-0.3-0.2-0.6-0.5-0.9-0.7
		c-2-1.7-4.1-3.3-5.1-5.8c-39.4-28.8-82.2-41.2-127.8-41.5c-7.6,0-15.3,0.3-23,0.9s-15.5,1.6-23.4,2.8
		c-34.6,5.5-67.7,16.4-100.6,27.8c-3.4,1.2-6.9,2.2-10.4,3.4c-17.6,8.9-35.6,17.1-52.9,26.6c-2.5,1.4-4.9,2.7-7.4,4.1
		c-56.9,32.7-90.1,82-103,145.7c-0.3,1.5-0.6,2.9-0.8,4.4c-0.3,1.5-0.5,2.9-0.9,4.4c-0.2,0.9-0.4,1.8-0.7,2.8
		c-0.5,2-1.1,3.9-1.9,5.8c0,2.8-0.2,5.7-0.5,8.5c0,0.1,0,0.3,0,0.4c-0.3,2.7-0.7,5.4-1.1,8c0,0.2-0.1,0.4-0.1,0.6
		c-0.2,1.3-0.4,2.6-0.7,4c-0.7,4.3-1.5,8.5-2,12.9c-2.9,24.3-6.3,48.5-9.5,72.8c-0.6,4.5-0.3,9.3-3.3,13.2
		c-1.1,10.6-3,21.1-6.2,31.2c-11.1,34.9-33.2,52.2-69.6,56.1c-26.3,2.8-52.4,0.8-78.6-1.8c-41.1-4-81.6-11.2-121.9-20
		c-2.9-0.6-5.9-1.1-8.5-2.8c-39.1-8.4-75.8-23.3-111.6-40.7c-14.9-7.3-29.7-14.6-44.7-21.7c-2.3-1.1-4.7-2.1-7.1-3.1
		c-2.4-0.9-4.8-1.8-7.2-2.6c-4.9-1.6-9.8-3-14.9-4.1c-1.2,0-2.5,0.3-3.8,0.2c-0.4,0-0.8-0.1-1.2-0.2c-10.2-2.6-20.4-1.6-30.7-0.2
		c-20.5,2.8-40.4,8.3-60.2,13.7c-61.5,16.8-122.8,34.8-185.1,48.4c-23.7,5.2-47.2,11.3-69.7,20.6c-27,11.1-44.6,30.7-52,59.1
		c-2.7,10.6-4.5,21.5-4.9,32.5c-1.3,32.6,0.3,65.2,2.7,97.7c0.9,12.6,1.1,25.2,2,37.8c2.1,27.6,1.9,55.2-2.8,82.5
		c-4,23.2-11.4,45.1-25.8,64.1c-0.2,1.2-0.6,2.1-2,2.2c0.2,2.9-2,4.8-3.4,6.8c-8.4,12-18.1,23-28.4,33.4
		c-18.1,18.2-37.7,34.6-56.6,51.9c-16,14.6-31.7,29.4-45.4,46.2c-17.5,21.4-20.7,44.6-9.6,69.9c1.5,3.3,3,6.7,4.6,10
		c5.9,12,12.3,23.6,19.7,34.7c19.4,29.4,38.2,59.2,58.8,87.8c3.5,4.8,7.2,9.6,9.5,15.2c8.1,8.3,16.1,16.7,21,27.4c0,0,0,0,0,0
		c10.8,9.6,20.5,20.5,31.4,30.1c1.6,1.4,3.1,2.7,4.7,4c16.7,13.6,34.8,24.1,56,29c10,2.3,19.9,2.9,29.7,2.3
		c9.8-0.6,19.6-2.4,29.3-4.8c1.4-1.6,3.3-2.2,5.2-2.8c0.6-0.2,1.3-0.4,1.9-0.6c19.7-7.6,37.8-17.9,54.9-30.2
		c28.7-20.7,54.6-44.5,77.3-71.7c20.9-25.1,36.8-52.8,46.9-83.9c5.9-18.3,11.9-36.6,17.9-54.9c5.6-17,14.4-32.1,27.7-44.4
		c3.5-3.2,7.1-6.1,11.1-8.4c5.1-2.9,10.7-4.9,17-5.1c2.9-2,6.1-3.3,9.3-4.1c5.4-1.4,11-1.5,16.6-1.7c28.5-1.2,56.4,3.3,84.1,8.7
		c30.3,6,60.6,12.2,91.3,16.3c17.1,2.3,34.4,3,51.7,4.5c39.5,3.3,79.1,2.5,118.7,2.6c5.6,0,11.3-0.6,16.8,1.2c0.5-0.1,1-0.3,1.5-0.4
		c0.2,0,0.3,0,0.5,0c28.3,2.1,56.5,2.1,84.7-1c25.5-2.8,49.6-9.4,70.9-24.3c30.2-21.1,48.8-50.2,59.8-84.8
		c6.4-20.1,8-41.1,10.3-61.9c-3.9-34.4-13.5-67.5-23.2-100.6C1746.9,2014.1,1746,2011.2,1745.2,2008.3z"/>
	<path fill="#798388" d="M1526.3,2288.8c-39.6-0.1-79.2,0.7-118.7-2.6c-17.2-1.4-34.6-2.1-51.7-4.5c-30.6-4.2-60.9-10.4-91.3-16.3
		c-27.8-5.5-55.7-10-84.1-8.7c-5.6,0.2-11.2,0.4-16.6,1.7c-3.2,0.8-6.3,2.1-9.3,4.1c0.7,13.9,2.4,27.9,1.9,41.7
		c-1.3,32.8-2.2,65.7-8.8,98c0,0,0,0,0,0c3.5-0.3,6.5,1.3,9.6,2.5c18.1,7.5,36.2,15.2,54.3,22.8c29.1,12.3,58.6,23.6,89.7,29.9
		c27.2,5.5,54.6,7.8,82.2,4.3c40.1-5.1,77.6-18.4,111.9-40c16.9-10.6,32.8-22.6,45.6-38.4c0.9-1.1,1.8-2.3,2.7-3.4
		c1.7-2.3,3.4-4.6,4.9-7c10.1-15.5,16.1-32.5,18.6-51.1c0.4-4.2-2.7-6.5-5.2-9.1c-1.7-1.8-3.4-3.5-5.2-5.3
		c-5.2-5.3-10.1-10.8-13.6-17.5c0,0,0,0,0,0C1537.7,2288.3,1532,2288.8,1526.3,2288.8z"/>
	<path fill="#798388" d="M722.6,2476.5c-18.3,0.8-36.6,0.6-54.8-1c-31.4-2.8-61.1-12.2-89.9-24.8c-16.4-7.2-33-14.1-50.8-17.4
		c-13.9-2.5-26.3,0.2-37.3,9.3c-10.6,8.8-17.7,19.8-22,32.7c-7.1,21.2-7.9,43-5.1,65.1c2.4,18.9,8.6,36.9,14.8,54.8
		c1,3,1.9,5.9,2.7,8.8c4,15.9,3.6,31.7-3.7,47.4c3.9,0.7,7.8,1.4,11.7,2.1c19.9,3.6,40,5.7,60.2,6.7c20.9,1,41.7-0.2,62.5-3.7
		c51.9-8.6,87.6-37.3,108.5-85.1c2.4-5.5,4.7-11,6.9-16.6c6.6-16.7,12.3-33.7,17.4-50.9C738.7,2493.2,730.7,2484.8,722.6,2476.5z"/>
	<path fill="#303133" d="M1156.5,2304.3c0.6-13.9-1.2-27.8-1.9-41.7c-6.4,0.2-11.9,2.2-17,5.1c-3.9,2.3-7.6,5.2-11.1,8.4
		c-13.3,12.2-22.1,27.3-27.7,44.4c-6,18.3-12,36.6-17.9,54.9c-10.1,31.1-26.1,58.8-46.9,83.9c-22.7,27.3-48.5,51-77.3,71.7
		c-17.1,12.3-35.2,22.6-54.9,30.2c-0.6,0.2-1.2,0.4-1.9,0.6c-1.9,0.6-3.8,1.1-5.2,2.8c16.5,19.2,36.1,34.3,58.8,45.5
		c19.8,9.7,40.5,16.7,61.9,21.9c18.4,4.4,37.2,7.6,56.1,8.1c20.7,0.6,35-9.9,41.5-29.2c2.7-7.9,4.8-15.9,6-24.2
		c2.5-17.8,4.3-35.7,7.1-53.4c1.9-12,3.8-24,5.8-35.9c5.2-31.7,10.5-63.3,15.7-95C1154.3,2369.9,1155.2,2337.1,1156.5,2304.3z"/>
	<path fill="#303133" d="M1537.5,2584.3c-0.5,0.3-0.7,1.1-0.9,1.7c1.1-0.1,1.9-0.6,2.1-1.7c0-0.1,0-0.1,0-0.2c0,0-0.1,0-0.1,0
		C1538.2,2584,1537.8,2584.1,1537.5,2584.3z"/>
	<path fill="#303133" d="M1518.8,2610.3c0,0,0,0.1,0,0.1c0.1,0,0.1,0,0.2,0c1.5,0.1,1.4-1.1,1.5-2.1c-0.5,0.2-0.9,0.4-1.2,0.8
		C1519,2609.4,1518.8,2609.8,1518.8,2610.3z"/>
	<path fill="#4AB5A6" d="M2943.7,2103.9c-5.9,1.9-11.9,3.7-17.8,5.6c-27.7,8.4-55.8,14.9-84.7,18c-13,1.4-25.9,0.8-38.7-1.9
		c-35.1-7.4-50.8-32.8-54.9-62.9c-2.3-17,0.1-33.8,5.2-50.2c6.8-22,16.2-42.9,27.1-63.1c18.7-34.5,37.1-69.1,50.7-106.1
		c11.6-31.2,21.4-63,28.1-95.6c4.8-23.4,10.9-46.6,13.8-70.4c0.4-3.6,0.7-7.3,1-10.9c-9,15.6-15.1,32.5-22.2,48.9
		c-10.9,25.4-22.7,50.3-37,73.9c-40.5,67-94.8,120.4-160.9,162c-17.6,11.1-36.6,18.5-57.4,21.7c-21.7,3.4-42.4,0-62.6-7.5
		c-17.8-6.6-34.4-15.8-51.4-24.1c-17.6-8.6-35.5-16.6-54.9-20.6c-27.8-5.7-55.4-5.2-83.1,0.9c-11,2.4-22.1,4.4-33.4,5.8
		c-2,0.3-4,0.4-6,0.4c-1.1,0-2.2,0-3.2,0c-4.9-0.1-9.7-0.6-14.6-0.5c7,6.6,13.7,13.5,18.7,21.8c0.7,1.2,1.4,2.4,2,3.6
		c16.8,32.6,1.4,75.2-32.5,89.8c-16.1,6.9-33,8.5-49.9,5.7c-31.7-5.3-59.2-19.4-81.3-43.1c-6.9-7.4-12.5-15.7-14.8-25.6
		c-3.7-15.7-0.3-29.9,11-41.5c17.6-18,39-28.7,64.1-31.2c17-1.7,33.8,0.1,50.4,4.6c3.5,0.9,7.1,1.6,10.7,2.3c-0.5-1.9-0.6-4-1.4-5.7
		c-7.7-16-6.8-32.2-1-48.5c9.2-25.8,23.3-48.5,42.3-68.2c21.1-21.8,42.4-43.3,60.8-67.5c16.3-21.5,31.4-43.8,41.5-69.1
		c8.5-21.3,12.6-43.3,10.9-66.4c-1.3-16.9-8-30.7-20.8-41.7c-13.4-11.5-28.7-19-46.3-21.9c-17.5-2.9-35.3-3.7-52.7-1.2
		c-24.5,3.5-43.7,16.9-59,36c-15.6,19.6-27.3,41.7-39.3,63.6c-10.9,19.8-21.9,39.6-35.9,57.5c-16.7,21.5-36.4,39.9-59.3,54.5
		c-62.1,39.5-125.6,76.3-193.9,104.3c-9.3,3.8-18.6,7.3-28,10.6c-4.7,1.6-9.4,3.2-14.2,4.8c-4.7,1.5-9.5,3-14.3,4.4
		c-19.1,5.6-38.5,10.2-58.2,13.7c-9.6,14.7-20.6,27.9-33.2,39.6c-2.8,2.6-5.7,5.1-8.6,7.5c-7.4,6.1-15.2,11.6-23.6,16.7
		c-0.2,1.4-0.3,2.8-0.3,4.3c0,0,0,0,0,0c0,0.7,0.1,1.4,0.2,2.1c0.1,0.7,0.2,1.4,0.4,2.1l0.4,0.4c0,0-0.3,0.5-0.3,0.5
		c0.5,6.1,1.3,12.1,2.4,18c2.7,14.9,6.8,29.4,11.1,43.9c0.9,2.9,1.7,5.8,2.6,8.7c9.7,33.1,19.4,66.2,23.2,100.6
		c18.3,16.2,40.1,24.2,63.7,28.5c14.4,2.6,28.6,5.9,43,8.6c39.6,7.4,73,25.6,99,56.9c16.1,19.4,32.1,39.1,49,57.8
		c33.8,37.5,70.7,72.3,98.8,114.8c12.6,5.6,22.5,15.2,32.4,24.3c17.1,15.8,32.1,33.5,43.9,53.7c10.6,18.3,17.3,38,19.2,59.1
		c1.3,15.1-1.5,29.7-7.9,43.5c11,13.3,23.1,25.4,36.6,36c2.2,1.8,4.5,3.5,6.8,5.2c2.3,1.7,4.7,3.3,7.1,4.9c4.2,2.8,8.4,5.6,12.6,8.3
		c2,1.3,3.9,2.6,5.9,3.9c16.3,10.7,32.4,21.6,47.2,34.4c0.1-5.5-3.9-9.1-6.7-13c-9.8-14-17.9-28.8-24.6-44.5
		c-9.4-22.1-14.6-44.9-12.3-69c1.9-20.4,7.1-40,16.3-58.3c28.8-57.7,72.2-100.7,132.5-123.8c57.6-22.1,118-31.7,179.9-30.6
		c18.5,0.3,36.2,4.5,53.1,12.3c2.4,1.1,5,1.9,7.5,2.8c0,0,0,0,0,0c8.5-3.8,15.9-9.7,24.5-13.4c0.6-0.3,1.2-0.5,1.7-0.7
		c16.2-6.4,32.9-11.1,50.2-11.9c20.5-1,40.2,3.9,58.6,13.4c17,8.8,32,20.3,45.6,33.6c13.7,13.5,27.8,26.7,40.1,41.6
		c3.2,3.8,7.1,7,10.7,10.5c2-7.7,4-15.4,6-23.1c12.4-48.3,40.7-84.8,81.3-112.3v-182.7c-11.8,3.8-23.6,7.8-35.4,11.6
		C2952.5,2101.1,2948.1,2102.5,2943.7,2103.9z"/>
	<path fill="#303133" d="M2911,2383.1c-2,7.7-4,15.4-6,23.1c-2.5,26.4-3.6,53-4.6,79.5c-0.6,16.9-0.9,33.9-0.7,50.8
		c0.3,30.9-0.4,61.8-2.8,92.6c-1.3,17.9,0,35.9-3.6,53.6c0.9,2.7,2.5,5.1,4.1,7.4c0.1,0.2,0.3,0.3,0.4,0.5c0.6,0.8,1.2,1.6,1.9,2.4
		c0.4,0.5,0.7,0.9,1,1.4c17.5,23.5,37,45.3,57.6,66.1c1.5,1.5,3,3.1,4.6,4.6c9.3,9.2,19,17.9,29.3,26v-520.3
		C2951.7,2298.3,2923.4,2334.8,2911,2383.1z"/>
	<path fill="#798388" d="M2740.3,2405.2c17.4,28,32.7,57.2,47.2,86.8c22,45.2,42.8,91,68.3,134.3c1.4,2.4,2.9,4.9,4.3,7.3
		c1.4,2.4,2.9,4.9,4.4,7.3c8.8,14.5,18,28.7,29,41.8c3.6-17.7,2.2-35.7,3.6-53.6c2.3-30.8,3.1-61.7,2.8-92.6
		c-0.2-16.9,0.1-33.9,0.7-50.8c1-26.5,2.1-53,4.6-79.5c-3.6-3.5-7.5-6.6-10.7-10.5c-12.3-14.9-26.4-28.1-40.1-41.6
		c-13.6-13.4-28.6-24.9-45.6-33.6c-18.4-9.5-38.1-14.4-58.6-13.4c-17.2,0.8-34,5.5-50.2,11.9c-0.6,0.2-1.2,0.5-1.7,0.7
		c-8.6,3.8-16,9.6-24.5,13.4c0,0,0,0,0,0C2701,2352.4,2722.7,2376.9,2740.3,2405.2z"/>
	<path fill="#798388" d="M2332,2662.3c0.2,3.8,2.2,6,5.7,7.1c-0.1-1.9-0.8-3.3-1.8-4.4C2334.9,2663.9,2333.5,2663,2332,2662.3z"/>
	<path fill="#798388" d="M2219.7,2521.3c-1.9-21.1-8.5-40.8-19.2-59.1c-11.7-20.2-26.8-37.9-43.9-53.7c-9.9-9.2-19.8-18.7-32.4-24.3
		c0.7,1.8,1.2,3.8,2.1,5.5c9.8,18.1,18.4,36.7,26.3,55.7c8.9,21.8,15.7,44.4,25.5,65.8c2.2,4.8,4.4,9.7,6.8,14.4
		c7.1,14.2,15.4,27.7,26.8,39.2C2218.2,2551,2221.1,2536.3,2219.7,2521.3z"/>
	<path fill="#303133" d="M2942.9,404.9c-1.6-1.6-3.2-3.3-4.7-5.1c-1.3-1.5-2.7-3.1-3.9-4.7c-5.5-6.8-10.4-14.2-14.8-22.4
		c-0.5-0.9-1.2-1.5-1.9-2.3c-8.1,13.4-16.2,26.7-24.3,40.1c-15.4,25.4-31.8,50-50.9,72.8c-16.9,20.1-36.7,35.7-63.1,41.1
		c-7.8,1.6-15.7,2.9-23.7,3.1c-17.7,0.4-35.3-0.8-52.6-4.7c-28.1-6.4-50.3-22-67.4-45.1c-13.9-18.7-22.5-39.9-29.8-61.8
		c-7.1-21.2-14.9-42-24.1-62.3c-5.9-13.1-12.9-25.6-23.2-35.9c-18.8-19-38.2-21.6-61.4-8.3c-13.7,7.8-23.7,19.2-32.3,32.1
		c-16.2,24.2-28.9,50.1-40.6,76.7c-6.5,14.6-13.4,29-20.9,43.1c-18.2,34-44.6,58.4-80.9,72c-10,3.7-19.7,8.1-29.5,12.1
		c-39.7,15.8-58.8,46.7-64.7,87.6c-4.2,28.7-0.7,57.1,3,85.5c2.6,20.5,7.6,40.6,10.9,60.9c6.3,39,1.5,77-12.8,113.7
		c-6.5,16.8-12.9,33.5-16.8,51.1c-6.3,28.2-5.1,56.2,0.8,84.2c4.7,22.8,10.1,45.4,13.5,68.5c5.1,34.1,3,67.7-4.2,101.2
		c-9.7,45.1-24.1,88.6-46.4,129.2c-7.6,13.8-16.1,26.8-28.8,36.6c1,2.6,3.1,4.2,5.1,5.8c0.3,0.2,0.6,0.5,0.9,0.7
		c29.7,25,39.8,57.1,33.9,94.8c-3.1,19.8-9.2,38.9-17.5,57.1c-34,74.9-79.1,142.3-136.4,201.5c-23.3,24.1-49.7,44.3-80.1,58.7
		c-34.1,16.1-70,27-107,34.2c-22.8,4.5-45.7,8.8-67.7,16.5c-15,5.2-27.1,14-34.9,28.1c12.9,10.9,27.9,14.2,44.4,12
		c2.9-0.4,5.9-0.3,8.8-0.5c19.7-3.6,39.1-8.1,58.2-13.7c4.8-1.4,9.5-2.9,14.3-4.4c4.7-1.5,9.5-3.1,14.2-4.8
		c9.4-3.3,18.7-6.8,28-10.6c68.3-28,131.8-64.8,193.9-104.3c22.9-14.6,42.5-33,59.3-54.5c14-17.9,25-37.7,35.9-57.5
		c12-21.9,23.6-44,39.3-63.6c15.3-19.2,34.5-32.5,59-36c17.5-2.5,35.2-1.8,52.7,1.2c17.5,2.9,32.9,10.4,46.3,21.9
		c12.8,10.9,19.5,24.8,20.8,41.7c1.7,23.1-2.4,45-10.9,66.4c-10.1,25.3-25.1,47.6-41.5,69.1c-18.4,24.2-39.7,45.7-60.8,67.5
		c-19,19.6-33.1,42.4-42.3,68.2c-5.8,16.3-6.7,32.5,1,48.5c0.8,1.7,1,3.8,1.4,5.7c7.2,4.5,14.5,9.1,21.7,13.6
		c4.9-0.1,9.7,0.4,14.6,0.5c1.1,0,2.2,0,3.2,0c2,0,4-0.1,6-0.4c11.2-1.4,22.3-3.4,33.4-5.8c27.7-6.1,55.3-6.6,83.1-0.9
		c19.4,4,37.2,12,54.9,20.6c17,8.3,33.6,17.5,51.4,24.1c20.2,7.5,40.9,10.9,62.6,7.5c20.7-3.3,39.8-10.7,57.4-21.7
		c66.1-41.6,120.4-95,160.9-162c14.3-23.6,26.1-48.5,37-73.9c7.1-16.4,13.2-33.3,22.2-48.9c4.8-18.2,7.8-36.8,11.3-55.3
		c5-26.6,10.9-53.1,18.1-79.2c-3-3.7-4.6-8.1-6.5-12.3c-0.3-0.6-0.5-1.2-0.8-1.8c-6-12.4-15.1-21.5-27-28.4
		c-25.5-14.8-52.8-25-80.6-34.3c-3.6-1.2-7.2-2.5-10.8-3.7c-25.3-8.6-50.5-17.6-75.2-27.8c-19.5,0.1-38.9,1.2-58.3,2.7
		c-6.5,0.5-12.9,1-19.4,1.6c-28.4,2.4-56.5,0.1-84.7-1.8c-24.9-1.7-49.6-5.4-73.5-12.9c-21.4-6.7-41.7-15.7-59.6-29.5
		c-22.6-17.5-34.9-40.3-36.9-69c-1.5-21.9,1.5-43.1,6.4-64.3c11.2-48.5,27.1-95.3,50.8-139.3c8.4-15.6,18.2-30.2,30.3-43.2
		c26.9-28.9,60.4-45.2,99.3-50.6c56-7.7,109.3,1.4,159.9,26.6c2.7,1.3,5.2,3,8.3,3.2c3.4-3.3,7.8-5.1,12-6.9
		c21-9.4,35.8-25.1,46.8-44.8c14.4-25.7,24.6-53.1,32.1-81.5c11.7-44.5,18.7-89.7,20.6-135.8c1.3-32.5,2.6-65.2,7.6-97.5
		c2-13.2,5.1-26.1,9.3-38.7c10.5-31.3,32-52.3,61.4-66c24.9-11.6,51.4-18.1,78-24.1V438.4C2973.4,430.1,2956.8,419.1,2942.9,404.9z"
		/>
	<path fill="#F58F39" d="M2911.5,1512.9c-3.1,6.2-5.8,12.7-8.6,19c-7.2,26.1-13.1,52.5-18.1,79.2c-3.5,18.5-6.5,37.1-11.3,55.3
		c-0.3,3.6-0.6,7.3-1,10.9c-2.9,23.8-9,47-13.8,70.4c-6.7,32.6-16.5,64.3-28.1,95.6c-13.7,36.9-32,71.6-50.7,106.1
		c-11,20.2-20.3,41.1-27.1,63.1c-5.1,16.4-7.5,33.2-5.2,50.2c4.1,30.1,19.9,55.6,54.9,62.9c12.8,2.7,25.6,3.3,38.7,1.9
		c28.9-3.1,57-9.6,84.7-18c6-1.8,11.9-3.7,17.8-5.6c4.4-1.4,8.8-2.8,13.2-4.3c11.8-3.8,23.6-7.8,35.4-11.6v-628.2
		c-6.8,1.2-13.7,2.3-20.4,3.9C2943.9,1470.4,2924.1,1487.3,2911.5,1512.9z"/>
	<path fill="#798388" d="M2925,927.8c-10.7,29.1-16.4,59.5-23.5,89.6c-5.9,24.9-12.2,49.7-22.2,73.4c-9.2,21.9-20.9,42.3-35.6,61
		c-0.3,0.4-0.6,0.7-0.9,1.1c-2,2.5-4.3,4.7-7.6,5.6c11.6,24.3,20.6,49.5,25.6,75.8c0.7,3.8,1.3,7.6,1.9,11.4
		c4.9,33.9,5.3,67.6-4.8,100.9c-8,26.3-24.5,44.5-49.8,54.9c-19.8,8.2-40.7,12.4-61.8,15.7c-12.1,1.9-24.2,4.6-36.6,4.5
		c-2.6,0-5.1,1.3-7.7,2c0,0,0,0,0,0c24.7,10.3,49.9,19.2,75.2,27.8c3.6,1.2,7.2,2.5,10.8,3.7c27.7,9.4,55.1,19.5,80.6,34.3
		c11.9,6.9,21,16,27,28.4c0.3,0.6,0.6,1.2,0.8,1.8c1.9,4.2,3.5,8.7,6.5,12.3c2.9-6.3,5.5-12.8,8.6-19c12.6-25.6,32.4-42.5,60.4-49.1
		c6.7-1.6,13.6-2.7,20.4-3.9V838.5C2958.7,859.5,2938.5,891,2925,927.8z"/>
	<path fill="#4AB5A6" d="M2852.9,641.8c-4.3,12.6-7.3,25.6-9.3,38.7c-5,32.3-6.2,64.9-7.6,97.5c-1.9,46.1-8.9,91.3-20.6,135.8
		c-7.5,28.4-17.7,55.8-32.1,81.5c-11,19.6-25.8,35.4-46.8,44.8c-4.2,1.9-8.6,3.6-12,6.9c18,10.1,34.8,21.8,50.2,35.5
		c20.2,17.9,37.9,38,51.5,61.5c2.8,4.9,5.9,9.6,8.9,14.4c3.3-0.9,5.6-3.1,7.6-5.6c0.3-0.4,0.6-0.7,0.9-1.1
		c14.7-18.7,26.4-39.1,35.6-61c10-23.7,16.3-48.5,22.2-73.4c7.1-30.1,12.8-60.4,23.5-89.6c13.5-36.8,33.7-68.3,67.3-89.3V551.7
		c-26.6,5.9-53.1,12.4-78,24.1C2884.9,589.5,2863.4,610.5,2852.9,641.8z"/>
	<path fill="#4AB5A6" d="M644.5,82.3c3.4,2.7,7.6,3.9,11.6,5.6c54.6,22.7,108.2,47.3,160,75.9c8.3,4.6,16.8,9.1,25.2,13.6
		c7,3.7,14,7.3,21.1,11c18.4,9.5,36.9,18.8,55.2,28.4c19.1-19.5,38.2-38.9,57.3-58.4c12.6-12.8,25-25.8,37.6-38.6
		c30.7-31.4,68.2-49.2,111.5-55.2c39.3-5.4,78.6-9.7,118.3-8.2c8.6,0.3,17.2,1.1,25.9,1.7c-8.8-16.1-20.6-27.7-35.6-34.2
		c-7.9-3.4-16.6-5.5-26.4-6.1c-21.3-1.3-42.4,2-63.6,2.9c-25,1.1-49.1-2.4-71.9-12.8H684.7c-9.6,19-20.1,37.5-30.8,55.9
		C650.4,69.6,645.7,75.1,644.5,82.3z"/>
	<path fill="#303133" d="M1142.5,20.5c21.2-0.9,42.3-4.2,63.6-2.9c9.7,0.6,18.5,2.6,26.4,6.1c15,6.6,26.8,18.2,35.6,34.2
		c0,0,0,0,0,0c9.9,2.1,19.9,3.8,29.8,6.1c1.4,0.3,2.8,0.7,4.2,1c44.1,10.8,79.7,35.2,109.2,69.1c12,13.8,22.8,28.5,32.5,44
		c0.7,1,1.2,2.1,1.9,3.2c1,1.8,2.2,3.5,3.9,4.8c12.3-10.8,23.8-22.6,36.1-33.6c5.6-5,11.3-9.8,17.3-14.3
		c26.2-19.4,53.2-37.4,83-50.9c3.3-1.5,6.4-3.7,10.3-3.2c7.6-6.1,16.5-9.6,25.4-13.2c1.3-0.5,2.5-1,3.8-1.5
		c39.7-16.2,79-33.4,119.9-46.6c17.4-5.6,35-10.7,53.1-13.4c5.7-0.8,11.3-1.4,16.9-1.8h-744.7C1093.4,18.1,1117.5,21.6,1142.5,20.5z
		"/>
	<path fill="#303133" d="M1948,52.2c15.3,8.7,30.7,17.3,47.7,22.7c22.6,7.2,45,7.4,67.6-0.3c44.7-15.3,86.3-36.6,123.7-65.6
		c0.5-0.4,1.1-0.8,1.6-1.2h-351.8c18.9,1.2,37.3,5.6,55.3,13.8C1911.4,30.4,1929.5,41.6,1948,52.2z"/>
	<path fill="#4AB5A6" d="M2322.2,129.8c2.5,30.9,2.9,61.8,1.6,92.7c-2.4,54-9.4,107.2-29.5,157.9c-8.3,20.9-19.4,40.3-35,56.5
		c-17,17.7-38.3,28.5-62,34.5c-22.2,5.6-44.9,8.5-67.8,10.4c-68,5.7-135.1,16.1-199.6,39.8c-7.6,2.8-15.2,5.6-22.7,8.7
		c-12.5,5-24.8,10.6-36.6,17.2c1.3,0,2.6,0,3.9,0c14.2,0,28.3-1.5,42.4-3.1c1.3-0.1,2.6-0.3,3.8-0.4c2.6-0.3,5.1-0.6,7.7-0.9
		c1.3-0.1,2.6-0.3,3.8-0.4c31.5-3.5,62.9-6.7,94.6-4.8c34.1,2.1,66.1,11.1,94.9,30.3c34.4,22.9,52.7,55.4,58.3,95.8
		c3.2,23.3,2,46.5-1.2,69.7c-0.4,3-0.8,6-0.7,8.9c0.2,34-1.6,67.9-3.5,101.8c-0.5,8.8,1.5,17.2,2.3,25.8
		c4.9,50.1-20.7,87.1-69.5,99.5c-19.5,4.9-39.3,6-59.4,4.9c-32.2-1.8-64.4-4.7-96.6-7.1c-13.6-1-27.2-2.8-40.8-3.3
		c-34.6-1.4-69.2-0.6-103.8,0.8c-28.9,1.2-57.8,3.7-86.3,8.7c-3.2,0.6-6.4,1.1-9.6,1.6c-9.6,1.6-19.1,3.5-28.2,7.3
		c28.6,41.7,59.8,81.6,89.2,122.7c4.2,5.9,8.4,11.8,12.5,17.7c23,33.1,44.2,67.2,58.2,105.2c8.3,22.6,12.6,46,15.9,69.7
		c1.6,11.2,1.9,22.5,1.8,33.8c-0.1,6,0.2,11.9-1.4,17.8c-0.8,3.1-1.7,6.8,2.8,8.3c3.5-1.1,7-2.2,10.4-3.4
		c32.9-11.4,66-22.3,100.6-27.8c7.9-1.2,15.7-2.2,23.4-2.8s15.4-0.9,23-0.9c45.5,0.3,88.4,12.7,127.8,41.5
		c12.7-9.8,21.2-22.9,28.8-36.6c22.3-40.6,36.7-84,46.4-129.2c7.2-33.5,9.3-67.1,4.2-101.2c-3.4-23.1-8.8-45.7-13.5-68.5
		c-5.8-28-7-56-0.8-84.2c3.9-17.6,10.2-34.4,16.8-51.1c14.3-36.7,19.2-74.7,12.8-113.7c-3.3-20.4-8.2-40.4-10.9-60.9
		c-3.6-28.4-7.2-56.8-3-85.5c5.9-40.9,25-71.8,64.7-87.6c9.9-3.9,19.6-8.3,29.5-12.1c36.3-13.6,62.8-38.1,80.9-72
		c7.5-14.1,14.5-28.5,20.9-43.1c11.8-26.5,24.5-52.5,40.6-76.7c8.6-12.8,18.7-24.3,32.3-32.1c23.2-13.3,42.6-10.7,61.4,8.3
		c10.2,10.3,17.2,22.8,23.2,35.9c9.2,20.3,17,41.2,24.1,62.3c7.3,21.9,15.9,43.1,29.8,61.8c17.1,23.1,39.3,38.7,67.4,45.1
		c17.2,3.9,34.9,5.1,52.6,4.7c8-0.2,15.9-1.5,23.7-3.1c26.4-5.5,46.2-21,63.1-41.1c19.1-22.7,35.5-47.4,50.9-72.8
		c8.1-13.4,16.2-26.7,24.3-40.1c-3.4-10.1-7.1-20.1-9.8-30.4c-0.9-3.4-1.7-6.9-2.3-10.5c-6.5-38.1-1.1-74.6,15-109.5
		c3-6.6,6.3-13.1,9.5-19.7c-22.9-37.4-50.6-71.4-77-106.3c-18.8-24.9-35.4-51.3-48.4-79.8c-1-2.2-1.9-4.4-2.7-6.6h-483.4
		c0.8,27.8,1.5,55.5,2.3,83.3C2321.1,103.9,2321.2,116.9,2322.2,129.8z"/>
	<path fill="#798388" d="M1745.3,22.8c-40.9,13.2-80.2,30.4-119.9,46.6c-1.3,0.5-2.5,1-3.8,1.5c-8.9,3.5-17.8,7.1-25.4,13.2
		c0,0,0,0,0,0c0.1,3,0.9,5.7,1.9,8.4c0.1,0.4,0.3,0.8,0.4,1.2c11.6,30.6,18.6,62.2,18,95.2c-0.5,28.5-6.7,55.8-17.6,82.1
		c-15.1,36.7-36.3,70-58.3,102.9c-1.3,2-2.8,3.7-5.3,4.2c4.9,8.3,9.7,16.7,14.6,24.9c16.8,28.1,38.7,51.5,65.1,70.6
		c36.2,26.3,75.2,47.6,116.3,65c12.8,5.4,26,8,39.6,8.5c21.9,0.8,43.8,2.6,65.7,2.1c11.3-0.2,22.5-0.9,33.8-1.9
		c11.8-6.6,24.1-12.1,36.6-17.2c7.5-3,15.1-5.9,22.7-8.7c64.4-23.7,131.5-34.1,199.6-39.8c22.9-1.9,45.6-4.8,67.8-10.4
		c23.7-6,45-16.8,62-34.5c15.6-16.2,26.7-35.6,35-56.5c20.2-50.7,27.1-103.9,29.5-157.9c1.4-30.9,0.9-61.8-1.6-92.7
		c-1-12.9-1.1-25.9-1.5-38.8c-0.7-27.8-1.4-55.5-2.3-83.3h-130c-0.5,0.4-1.1,0.8-1.6,1.2c-37.4,29.1-79,50.3-123.7,65.6
		c-22.5,7.7-45,7.5-67.6,0.3c-16.9-5.4-32.3-14-47.7-22.7c-18.5-10.5-36.6-21.8-56-30.6c-18-8.2-36.4-12.6-55.3-13.8h-21.4
		c-5.6,0.3-11.3,0.9-16.9,1.8C1780.2,12.2,1762.7,17.2,1745.3,22.8z"/>
	<path fill="#303133" d="M2853,94.1c26.4,34.9,54.1,68.9,77,106.3c8.1-10,15.4-20.6,24.2-30.1c11.4-12.2,23.9-22.8,38.1-31.5V7.7
		h-190.4c0.9,2.2,1.7,4.5,2.7,6.6C2817.7,42.8,2834.2,69.2,2853,94.1z"/>
	<path fill="#F58F39" d="M2954.2,170.4c-8.8,9.4-16.1,20.1-24.2,30.1c-3.2,6.6-6.4,13.1-9.5,19.7c-16.1,35-21.5,71.4-15,109.5
		c0.6,3.5,1.4,7,2.3,10.5c2.7,10.3,6.4,20.3,9.8,30.4c0,0,0,0,0,0c0.6,0.8,1.4,1.4,1.9,2.3c4.3,8.1,9.3,15.6,14.8,22.4
		c1.3,1.6,2.6,3.1,3.9,4.7c1.5,1.7,3.1,3.4,4.7,5.1c13.8,14.2,30.5,25.1,49.4,33.5V138.9C2978.1,147.5,2965.6,158.2,2954.2,170.4z"
		/>
	<path fill="#F58F39" d="M910.4,224.9c-19.1,19.7-38.2,39.5-57.5,59.1c-14.5,14.7-25.8,31.1-29.7,51.7c0.3,5.2,0.4,10.4-0.4,15.5
		c0,1.2,0.1,2.5,0.1,3.7c0,0.5,0,1-0.1,1.5c0,0.2-0.1,0.5-0.1,0.7c-5.7,27.6-7.2,55.3-3.5,83.3c3.6,27.1,8.8,53.8,18.6,79.5
		c18.4,47.8,52,77.5,102.6,88.2c26.8,5.7,53.8,8.5,81.1,10c17.5,0.6,35.1,1,52.6,1.7c30.9,1.4,61.7,3,92.3,7.7
		c15.8,2.4,31.4,5.6,46.2,11.9c7.3,3.1,14.7,6.2,20.3,12.1c4.9,2.7,9.2,5.7,13.2,9c13.5,11.3,21.8,26.5,25.8,44.7
		c3,4.2,3.9,9.2,4.6,14.1c3,20.2,2.6,40.5-0.6,60.6c-9.3,58.5-35.2,109-75,152.6c-23.4,25.6-49.4,48.4-75.9,70.6
		c-24,20.1-48.6,39.4-70.3,62c-22.3,23.2-41.6,48.4-52.9,79c-2.1,5.6-3.8,11.2-5.3,16.9c-1.3,4.9-2.4,9.9-3.3,14.9
		c-2.3,12.3-3.7,24.9-4.6,37.5c1,11.6,1.4,23.2,3,34.7c6.6,47.4,23.3,91.2,48,132c5.1,8.5,10.4,17,15.5,25.5
		c3.4,2.3,5.1,6.1,7.4,9.3c28.4,39.1,58,77.2,93.4,110.4c8.3,7.8,17,14.9,26.1,21.7c22,16.5,45.8,20.1,71.6,10.2
		c17.9-6.9,33.7-17.4,48.8-28.8c47.2-35.6,86-79.4,120.5-127.1c1.2-1.6,2.2-3.3,3.3-5c1.8-2.8,3.7-5.5,6.1-7.8
		c10.6-17.3,19.7-35.4,27.7-53.9c4.8-11.1,9.2-22.4,13.4-33.9c8.6-36.6,14-73.7,21.1-110.6c5.2-27.1,11.5-53.9,22.9-79.3
		c21.9-48.8,57.7-83.8,105.4-107.2c16.5-8.1,33.7-14.1,51-19.9c2.8-0.9,5.7-2,8.8-1.4c9.1-3.8,18.6-5.7,28.2-7.3
		c3.2-0.5,6.4-1.1,9.6-1.6c28.6-5,57.4-7.4,86.3-8.7c34.6-1.5,69.2-2.3,103.8-0.8c13.6,0.6,27.2,2.3,40.8,3.3
		c32.2,2.5,64.3,5.4,96.6,7.1c20.1,1.1,39.9,0.1,59.4-4.9c48.8-12.4,74.4-49.3,69.5-99.5c-0.8-8.6-2.8-17-2.3-25.8
		c1.9-33.9,3.7-67.8,3.5-101.8c0-3,0.3-6,0.7-8.9c3.2-23.2,4.5-46.4,1.2-69.7c-5.6-40.4-23.9-72.9-58.3-95.8
		c-28.8-19.1-60.8-28.2-94.9-30.3c-31.7-1.9-63.2,1.3-94.6,4.8c-1.3,0.1-2.6,0.3-3.8,0.4c-2.6,0.3-5.1,0.6-7.7,0.9
		c-1.3,0.1-2.6,0.3-3.8,0.4c-14.1,1.6-28.2,3.1-42.4,3.1c-1.3,0-2.6,0-3.9,0c-11.2,1-22.5,1.7-33.8,1.9c-22,0.5-43.8-1.3-65.7-2.1
		c-13.6-0.5-26.8-3.1-39.6-8.5c-41.2-17.5-80.1-38.7-116.3-65c-26.4-19.2-48.3-42.6-65.1-70.6c-4.9-8.3-9.7-16.6-14.6-24.9
		c-13-24-23.3-49.3-33.5-74.6c-15.5-38.6-30.7-77.3-51.2-113.6c-0.6-1.1-0.8-2.5-1.1-3.7c0,0,0,0,0,0c-1.7-1.3-2.8-3-3.9-4.8
		c-0.6-1.1-1.2-2.2-1.9-3.2c-9.6-15.5-20.5-30.2-32.5-44c-29.5-33.9-65.1-58.3-109.2-69.1c-1.4-0.3-2.8-0.7-4.2-1
		c-9.9-2.3-19.9-4.1-29.8-6.1c0,0,0,0,0,0c-8.6-0.6-17.2-1.4-25.9-1.7c-39.7-1.5-79.1,2.8-118.3,8.2c-43.3,6-80.8,23.9-111.5,55.2
		c-12.6,12.8-25,25.8-37.6,38.6c-19.1,19.5-38.2,39-57.3,58.4v0C915.2,219.4,912.9,222.2,910.4,224.9z"/>
	<path fill="#303133" d="M1526.7,1611.3c17.1-21.4,14.2-43.1,1.9-65c-8-14.2-17-27.7-25.5-41.6c-0.4-0.7-0.8-1.3-1.2-2
		c-2.9-4.7-5.6-9.5-7.5-14.7c-4.9-3.5-7.8-8.4-10.4-13.4c-0.4-0.8-0.9-1.7-1.3-2.5s-0.9-1.7-1.3-2.5c-13.4-24.4-26.7-48.9-42.3-72.2
		c-2-3-4.3-5.8-6.5-8.7c-2.5,2.3-4.3,5-6.1,7.8c-1.1,1.7-2.1,3.4-3.3,5c-34.5,47.7-73.3,91.5-120.5,127.1
		c-15.1,11.4-30.9,21.9-48.8,28.8c-25.8,9.9-49.6,6.3-71.6-10.2c-9.1-6.8-17.8-14-26.1-21.7c-35.3-33.2-65-71.3-93.4-110.4
		c-2.3-3.2-4-7-7.4-9.3c-10.3,12.6-20.9,25-30.7,38c-11,14.5-21.9,29.3-29.8,45.9c-14.2,29.9-7.7,58.6,18.2,79.2
		c13.3,10.6,28,19,43.4,26.2c33.1,15.5,67.6,27.7,101.2,41.8c2.1,0.9,4.3,1.8,6.4,2.7c2.1,0.9,4.3,1.8,6.4,2.7
		c1.1,0.5,2.1,0.9,3.2,1.4c1.8,0.8,3.6,1.6,5.3,2.4c1.9,0.9,3.8,1.8,5.7,2.7c1.5,0.7,2.9,1.5,4.4,2.3c1.5,0.8,2.9,1.6,4.4,2.4
		c3.1,1.7,6.1,3.6,9,5.6c1.6,1.1,3.1,2.1,4.6,3.3c5,1.1,10,2.4,14.9,4.1c2.4,0.8,4.8,1.7,7.2,2.6c2.4,0.9,4.7,2,7.1,3.1
		c15,7,29.8,14.4,44.7,21.7c35.8,17.4,72.5,32.3,111.6,40.7c10.3-7.8,21.9-13.7,32.3-21.4
		C1463.9,1684.2,1496.6,1649.1,1526.7,1611.3z"/>
	<path fill="#4AB5A6" d="M915,1203.7c-17.7-3.6-32.8-12.4-47-23c-16.5-12.3-29.4-27.9-40.4-45.1c-12-18.8-23.8-37.7-36.7-55.9
		c-6.4-8.9-13-17.6-20-25.9c-6.8-8.2-13.8-16.1-21-23.7c-24.9-26.5-52.4-50.4-81.2-73c-7,11.7-13.1,23.9-21.1,35
		c-18.5,25.8-42.7,45.5-68,64c-27.7,20.3-57.7,36.8-88.4,51.9c1.4,4,4.6,6.4,7.5,9.2c17.1,16.5,31.2,35.2,43.9,55.3
		c12.9,20.5,24.4,42,38.3,61.8c19.2,27.4,44.3,46.5,77.1,54.7c26.1,6.6,52.6,6.3,79,3.7c22.1-2.1,43.8-7.2,65.2-13.5
		c24.9-7.4,49.1-16.5,71.5-29.9c3.4-2.1,6.7-4.3,9.9-6.6c13.7-10.1,25.1-22.6,36.2-35.5C918.7,1205.1,917,1204.1,915,1203.7z"/>
	<path fill="#303133" d="M689.3,1362.9c-14.2,1.1-27.3,5.9-37.5,16.1c-17.2,17.3-7.8,37.7,5.1,46.3c23.8,15.9,48.2,2.8,59.1-13.6
		c6.5-9.8,8.4-20.4,2.8-31.1C712.7,1369,702.2,1363.9,689.3,1362.9z"/>
	<path fill="#303133" d="M775.5,2118.5c-0.6,0.1-1.1,0.3-1.5,0.6c-0.3,0.2-0.5,0.6-0.6,1c0,0.1,0,0.2,0,0.4v0c0,0,0,0.1,0,0.1l0,0
		c0,0,0.1,0,0.1,0C774.9,2120.6,775.3,2119.7,775.5,2118.5z"/>
	<path fill="#4AB5A6" d="M877.3,729.3c-34.3-29.6-71-56.1-109.5-80c-29.1-18.1-58.9-34.9-90.8-47.9c-35.7-14.6-72.9-23-110.9-27.4
		c-18.8-2.2-37.8-3.6-56.7-3.7c-4.2,0-8.5-0.1-12.7-0.1c-8.4-0.1-16.8-0.3-25.2-0.5c-0.2,0-0.4,0-0.6,0c-21.1-0.5-42.2-1.2-63.3-1.8
		c2.7,1.9,5.2,4.1,8,5.8c30.1,19.1,59.7,38.8,89.1,59c47.5,32.7,96.5,62.7,149,86.9c50.1,23.1,100.3,46.1,149.3,71.4
		c24.5,12.6,49.9,23.6,76.3,31.7c21.6,6.6,43.4,12.6,66,14.9c-0.4-6.5-3.9-12-5.8-18C927.8,783.1,905.8,753.8,877.3,729.3z"/>
	<path fill="#4AB5A6" d="M1212.8,639.5c-14.8-6.3-30.4-9.5-46.2-11.9c-30.6-4.6-61.5-6.3-92.3-7.7c-17.5-0.8-35.1-1.2-52.6-1.7
		c14.1,23.2,33.2,40.4,59.3,49.4c14.9,5.1,30.4,7,46,7.7c13,0.6,25.8-1.7,38.6-3.8c8.8-1.4,17.4-3.1,26-5.1
		c14.3-3.4,28.2-8.1,41.6-14.7C1227.5,645.7,1220.1,642.6,1212.8,639.5z"/>
	<path fill="#4AB5A6" d="M823.2,335.7c-4-2-8.1-4.1-12.2-6c-17.6-8.5-35.7-15.8-55.8-17.3c0,0,0,0,0,0c0.6,2.1,2,3.3,3.8,4.3
		c21.3,11.5,42.5,23.1,63.7,34.6C823.7,346.1,823.6,340.9,823.2,335.7z"/>
	<path fill="#798388" d="M1674.1,983.7c-17.3,5.8-34.6,11.8-51,19.9c-47.7,23.4-83.6,58.4-105.4,107.2
		c-11.4,25.4-17.7,52.2-22.9,79.3c-7,36.9-12.5,74-21.1,110.6c6.1,2.4,8.6,8.3,11.9,13c14.9,21,26.5,43.7,33.2,68.6
		c7,26,5,51.2-6.4,75.7c-4.9,10.6-11,20.4-17.9,29.8c1.9,5.2,4.6,10,7.4,14.7c0.4,0.7,0.8,1.3,1.2,2c8.5,13.9,17.5,27.5,25.5,41.6
		c12.3,21.8,15.1,43.6-1.9,65c-30.1,37.8-62.8,73-102,101.8c-10.4,7.7-22,13.6-32.3,21.4c2.6,1.6,5.5,2.1,8.5,2.8
		c40.3,8.8,80.8,15.9,121.9,20c26.2,2.6,52.2,4.6,78.6,1.8c36.4-3.9,58.5-21.3,69.6-56.1c3.2-10.2,5.1-20.6,6.2-31.2
		c-10.4-19.1-18.4-39-23.8-60.1c-2.6-9.9-1.1-18.8,4.5-27.5c9.2-14.4,20.7-25.9,36.5-32.7c0.8-1.9,1.4-3.8,1.9-5.8
		c0.2-0.9,0.5-1.8,0.7-2.8c0.3-1.5,0.6-2.9,0.9-4.4c0.3-1.5,0.5-2.9,0.8-4.4c12.9-63.8,46-113,103-145.7c2.4-1.4,4.9-2.8,7.4-4.1
		c17.3-9.5,35.3-17.7,52.9-26.6c-4.5-1.5-3.7-5.2-2.8-8.3c1.6-5.9,1.3-11.9,1.4-17.8c0.1-11.3-0.2-22.5-1.8-33.8
		c-3.3-23.7-7.5-47.1-15.9-69.7c-14.1-38-35.3-72.1-58.2-105.2c-4.1-5.9-8.3-11.8-12.5-17.7c-29.4-41.1-60.6-81-89.2-122.7
		c0,0,0,0,0,0C1679.8,981.6,1676.9,982.7,1674.1,983.7z"/>
	<path fill="#303133" d="M1657.9,1584c-5.6,8.7-7.1,17.6-4.5,27.5c5.4,21,13.4,41,23.8,60.1c3-3.9,2.7-8.7,3.3-13.2
		c3.2-24.2,6.6-48.5,9.5-72.8c0.5-4.3,1.3-8.6,2-12.9c0.2-1.3,0.4-2.6,0.7-4c0-0.2,0.1-0.4,0.1-0.6c0.4-2.7,0.8-5.3,1.1-8
		c0-0.1,0-0.3,0-0.4c0.3-2.8,0.5-5.6,0.5-8.5C1678.5,1558.1,1667.1,1569.6,1657.9,1584z"/>
	<path fill="#798388" d="M1730.9,1897.7c-0.3,2.4-0.5,4.9-0.7,7.3c-0.1,2.2-0.2,4.4-0.3,6.6c0,1.3,0,2.6,0,3.9
		c0,7.1,0.5,14.3,1.3,21.4c8.4-5,16.2-10.6,23.6-16.7c2.9-2.4,5.8-4.9,8.6-7.5c12.6-11.6,23.6-24.9,33.2-39.6
		c-3,0.1-5.9,0.1-8.8,0.5c-16.5,2.2-31.4-1.1-44.4-12c-4.3,5.6-6.8,12-8.8,18.6C1732.9,1885.9,1731.7,1891.8,1730.9,1897.7z"/>
	<path fill="#A29FA0" d="M1731.7,1946.3L1731.7,1946.3c0,0,0.3-0.5,0.3-0.5l-0.4-0.4l-0.3,0.5
		C1731.3,1945.9,1731.7,1946.3,1731.7,1946.3z"/>
	<path fill="#F58F39" d="M2204.2,1906.7c-25.1,2.5-46.5,13.2-64.1,31.2c-11.3,11.6-14.7,25.8-11,41.5c2.3,9.9,7.9,18.3,14.8,25.6
		c22.2,23.6,49.7,37.8,81.3,43.1c16.9,2.8,33.8,1.2,49.9-5.7c33.9-14.6,49.3-57.2,32.5-89.8c-0.6-1.2-1.3-2.4-2-3.6
		c-5-8.3-11.7-15.1-18.7-21.8c-7.2-4.5-14.5-9.1-21.7-13.6c-3.6-0.8-7.2-1.4-10.7-2.3C2238,1906.9,2221.2,1905,2204.2,1906.7z"/>
	<path fill="#F58F39" d="M2709.7,1421.5c12.4,0.1,24.5-2.6,36.6-4.5c21.1-3.3,41.9-7.5,61.8-15.7c25.3-10.4,41.8-28.6,49.8-54.9
		c10.1-33.3,9.7-66.9,4.8-100.9c-0.5-3.8-1.2-7.6-1.9-11.4c-5-26.4-14-51.5-25.6-75.8c-3-4.8-6.1-9.5-8.9-14.4
		c-13.6-23.5-31.3-43.5-51.5-61.5c-15.5-13.7-32.3-25.4-50.2-35.5c-3.1-0.2-5.6-1.9-8.3-3.2c-50.6-25.2-103.9-34.3-159.9-26.6
		c-38.9,5.3-72.4,21.6-99.3,50.6c-12.1,13-21.9,27.6-30.3,43.2c-23.6,44-39.5,90.8-50.8,139.3c-4.9,21.1-7.9,42.4-6.4,64.3
		c2,28.7,14.3,51.5,36.9,69c17.9,13.8,38.2,22.9,59.6,29.5c23.9,7.5,48.6,11.2,73.5,12.9c28.2,1.9,56.4,4.2,84.7,1.8
		c6.5-0.5,12.9-1.1,19.4-1.6c19.4-1.5,38.8-2.7,58.3-2.7C2704.5,1422.8,2707.1,1421.5,2709.7,1421.5z"/>
	<path fill="#4AB5A6" d="M1450.8,189.9c20.6,36.3,35.7,75,51.2,113.6c10.2,25.3,20.5,50.6,33.5,74.6c2.5-0.4,3.9-2.1,5.3-4.2
		c22-32.9,43.2-66.2,58.3-102.9c10.8-26.3,17-53.6,17.6-82.1c0.6-33-6.4-64.5-18-95.2c-0.1-0.4-0.3-0.8-0.4-1.2
		c-1-2.7-1.8-5.5-1.9-8.4c0,0,0,0,0,0c-3.9-0.5-7,1.7-10.3,3.2c-29.8,13.5-56.8,31.5-83,50.9c-6,4.5-11.8,9.3-17.3,14.3
		c-12.2,11-23.7,22.7-36.1,33.6C1450,187.4,1450.1,188.8,1450.8,189.9z"/>
	<path fill="#4AB5A6" d="M1439.1,1397.3c15.5,23.2,28.8,47.7,42.3,72.2c0.5,0.8,0.9,1.7,1.3,2.5s0.9,1.7,1.3,2.5
		c2.7,5,5.6,10,10.4,13.4c6.9-9.4,13-19.2,17.9-29.8c11.4-24.5,13.4-49.7,6.4-75.7c-6.7-25-18.4-47.6-33.2-68.6
		c-3.4-4.7-5.8-10.6-11.9-13c-4.2,11.4-8.6,22.7-13.4,33.9c-8,18.5-17.1,36.6-27.7,53.9C1434.7,1391.4,1437.1,1394.2,1439.1,1397.3z
		"/>
</g>
</svg>
