<?xml version="1.0" encoding="UTF-8"?><svg id="a" xmlns="http://www.w3.org/2000/svg" viewBox="0 0 100 100"><defs><style>.b{fill:#ffffff;}</style></defs><path class="b" d="M60.61,50L94.01,16.6c2.93-2.93,2.93-7.68,0-10.61-2.93-2.93-7.68-2.93-10.61,0L50,39.39,16.6,5.99c-2.93-2.93-7.68-2.93-10.61,0-2.93,2.93-2.93,7.68,0,10.61L39.39,50,5.99,83.4c-2.93,2.93-2.93,7.68,0,10.61,1.46,1.46,3.38,2.2,5.3,2.2s3.84-.73,5.3-2.2L50,60.61l33.4,33.4c1.46,1.46,3.38,2.2,5.3,2.2s3.84-.73,5.3-2.2c2.93-2.93,2.93-7.68,0-10.61L60.61,50Z"/></svg>