<?xml version="1.0" encoding="UTF-8"?><svg id="a" xmlns="http://www.w3.org/2000/svg" viewBox="0 0 100 100"><defs><style>.b{fill:#f4f2dc;}</style></defs><path class="b" d="M86.53,23.78c0-4.52-3.68-8.2-8.21-8.2h-16.86v-5.51c0-1.38-1.12-2.5-2.5-2.5h-18.1c-1.38,0-2.5,1.12-2.5,2.5v5.51H21.5c-4.52,0-8.2,3.68-8.2,8.2,0,3.95,2.8,7.25,6.52,8.03l2.86,47.11c.04,7.85,6.45,14.23,14.31,14.23h25.84c7.86,0,14.27-6.38,14.31-14.23l2.86-47.11c3.72-.78,6.53-4.08,6.53-8.03ZM43.36,12.57h13.1v3.01h-13.1v-3.01Zm28.79,66.12s0,.1,0,.15c0,5.13-4.18,9.31-9.31,9.31h-25.84c-5.13,0-9.31-4.18-9.31-9.31,0-.05,0-.1,0-.15l-2.84-46.7h50.15l-2.84,46.7Zm6.18-51.7H21.5c-1.77,0-3.2-1.44-3.2-3.2s1.44-3.2,3.2-3.2h56.83c1.77,0,3.21,1.44,3.21,3.2s-1.44,3.2-3.21,3.2Z"/><path class="b" d="M49.82,82.03c1.38,0,2.5-1.12,2.5-2.5V38.85c0-1.38-1.12-2.5-2.5-2.5s-2.5,1.12-2.5,2.5v40.68c0,1.38,1.12,2.5,2.5,2.5Z"/><path class="b" d="M60.97,82.03s.08,0,.12,0c1.32,0,2.43-1.04,2.5-2.38l2-40.68c.07-1.38-1-2.55-2.37-2.62-1.41-.07-2.55,1-2.62,2.37l-2,40.68c-.07,1.38,1,2.55,2.37,2.62Z"/><path class="b" d="M38.55,82.03s.08,0,.12,0c1.38-.07,2.44-1.24,2.37-2.62l-2-40.68c-.07-1.38-1.24-2.45-2.62-2.37-1.38,.07-2.44,1.24-2.37,2.62l2,40.68c.07,1.34,1.17,2.38,2.5,2.38Z"/></svg>